<svg width="25" height="24" viewBox="0 0 25 24" fill="none" xmlns="http://www.w3.org/2000/svg">
<path d="M13.6844 11.0156V11.2156H13.8844H17.9156C18.2129 11.2156 18.3992 11.2898 18.5125 11.4031C18.6258 11.5165 18.7 11.7027 18.7 12C18.7 12.2973 18.6258 12.4835 18.5125 12.5969C18.3992 12.7102 18.2129 12.7844 17.9156 12.7844H13.8844H13.6844V12.9844V17.0156C13.6844 17.3129 13.6102 17.4992 13.4969 17.6125C13.3836 17.7258 13.1973 17.8 12.9 17.8C12.6027 17.8 12.4165 17.7258 12.3032 17.6125C12.1898 17.4992 12.1156 17.3129 12.1156 17.0156V12.9844V12.7844H11.9156H7.8844C7.5871 12.7844 7.40087 12.7102 7.28754 12.5969C7.17421 12.4835 7.10002 12.2973 7.10002 12C7.10002 11.7027 7.17421 11.5165 7.28754 11.4031C7.40087 11.2898 7.5871 11.2156 7.8844 11.2156H11.9156H12.1156V11.0156V6.98438C12.1156 6.68708 12.1898 6.50084 12.3032 6.38752C12.4165 6.27419 12.6027 6.2 12.9 6.2C13.1973 6.2 13.3836 6.27419 13.4969 6.38752C13.6102 6.50084 13.6844 6.68708 13.6844 6.98438V11.0156ZM5.91565 0.2H19.8844C21.2392 0.2 22.3753 0.6644 23.3055 1.59455C24.2356 2.52469 24.7 3.66085 24.7 5.01562V18.9844C24.7 20.3392 24.2356 21.4753 23.3055 22.4055C22.3753 23.3356 21.2392 23.8 19.8844 23.8H5.91565C4.56087 23.8 3.42472 23.3356 2.49457 22.4055C1.56442 21.4753 1.10002 20.3392 1.10002 18.9844V5.01562C1.10002 3.66085 1.56442 2.52469 2.49457 1.59455C3.42472 0.6644 4.56087 0.2 5.91565 0.2ZM22.1821 21.282C22.786 20.6781 23.0844 19.9066 23.0844 18.9844V5.01562C23.0844 4.09341 22.786 3.32189 22.1821 2.71795C21.5781 2.11402 20.8066 1.81562 19.8844 1.81562H5.91565C4.99343 1.81562 4.22191 2.11402 3.61798 2.71795C3.01404 3.32189 2.71565 4.09341 2.71565 5.01562V18.9844C2.71565 19.9066 3.01404 20.6781 3.61798 21.282C4.22191 21.886 4.99343 22.1844 5.91565 22.1844H19.8844C20.8066 22.1844 21.5781 21.886 22.1821 21.282Z" fill="#EEEEEE" stroke="#212121" stroke-width="0.4"/>
</svg>
