<svg width="25" height="25" viewBox="0 0 25 25" fill="none" xmlns="http://www.w3.org/2000/svg">
<g clip-path="url(#clip0_110_1874)">
<path d="M19.8848 0.70874H5.91601C4.50976 0.70874 3.32226 1.19312 2.35351 2.16187C1.38476 3.13062 0.900391 4.31812 0.900391 5.72437V19.6931C0.900391 21.0994 1.38476 22.2869 2.35351 23.2556C3.32226 24.2244 4.50976 24.7087 5.91601 24.7087H19.8848C21.291 24.7087 22.4785 24.2244 23.4473 23.2556C24.416 22.2869 24.9004 21.0994 24.9004 19.6931V5.72437C24.9004 4.31812 24.416 3.13062 23.4473 2.16187C22.4785 1.19312 21.291 0.70874 19.8848 0.70874Z" fill="white"/>
<path d="M13.8848 11.7244H17.916C18.5723 11.7244 18.9004 12.0525 18.9004 12.7087C18.9004 13.365 18.5723 13.6931 17.916 13.6931H13.8848V17.7244C13.8848 18.3806 13.5566 18.7087 12.9004 18.7087C12.2441 18.7087 11.916 18.3806 11.916 17.7244V13.6931H7.88477C7.22852 13.6931 6.90039 13.365 6.90039 12.7087C6.90039 12.0525 7.22852 11.7244 7.88477 11.7244H11.916V7.69312C11.916 7.03687 12.2441 6.70874 12.9004 6.70874C13.5566 6.70874 13.8848 7.03687 13.8848 7.69312V11.7244Z" fill="#0A6E8D"/>
</g>
<defs>
<clipPath id="clip0_110_1874">
<rect width="24" height="24" fill="white" transform="translate(0.900391 0.70874)"/>
</clipPath>
</defs>
</svg>
