<svg width="24" height="24" viewBox="0 0 24 24" fill="none" xmlns="http://www.w3.org/2000/svg">
<path d="M12.7844 11.0156V11.2156H12.9844H17.0156C17.3129 11.2156 17.4992 11.2898 17.6125 11.4031C17.7258 11.5165 17.8 11.7027 17.8 12C17.8 12.2973 17.7258 12.4835 17.6125 12.5969C17.4992 12.7102 17.3129 12.7844 17.0156 12.7844H12.9844H12.7844V12.9844V17.0156C12.7844 17.3129 12.7102 17.4992 12.5969 17.6125C12.4835 17.7258 12.2973 17.8 12 17.8C11.7027 17.8 11.5165 17.7258 11.4031 17.6125C11.2898 17.4992 11.2156 17.3129 11.2156 17.0156V12.9844V12.7844H11.0156H6.98438C6.68708 12.7844 6.50084 12.7102 6.38752 12.5969C6.27419 12.4835 6.2 12.2973 6.2 12C6.2 11.7027 6.27419 11.5165 6.38752 11.4031C6.50084 11.2898 6.68708 11.2156 6.98438 11.2156H11.0156H11.2156V11.0156V6.98438C11.2156 6.68708 11.2898 6.50084 11.4031 6.38752C11.5165 6.27419 11.7027 6.2 12 6.2C12.2973 6.2 12.4835 6.27419 12.5969 6.38752C12.7102 6.50084 12.7844 6.68708 12.7844 6.98438V11.0156ZM5.01562 0.2H18.9844C20.3392 0.2 21.4753 0.6644 22.4055 1.59455C23.3356 2.52469 23.8 3.66085 23.8 5.01562V18.9844C23.8 20.3392 23.3356 21.4753 22.4055 22.4055C21.4753 23.3356 20.3392 23.8 18.9844 23.8H5.01562C3.66085 23.8 2.52469 23.3356 1.59455 22.4055C0.6644 21.4753 0.2 20.3392 0.2 18.9844V5.01562C0.2 3.66085 0.6644 2.52469 1.59455 1.59455C2.52469 0.6644 3.66085 0.2 5.01562 0.2ZM21.282 21.282C21.886 20.6781 22.1844 19.9066 22.1844 18.9844V5.01562C22.1844 4.09341 21.886 3.32189 21.282 2.71795C20.6781 2.11402 19.9066 1.81562 18.9844 1.81562H5.01562C4.09341 1.81562 3.32189 2.11402 2.71795 2.71795C2.11402 3.32189 1.81562 4.09341 1.81562 5.01562V18.9844C1.81562 19.9066 2.11402 20.6781 2.71795 21.282C3.32189 21.886 4.09341 22.1844 5.01562 22.1844H18.9844C19.9066 22.1844 20.6781 21.886 21.282 21.282Z" fill="#EEEEEE" stroke="#2A6F7E" stroke-width="0.4"/>
</svg>
