<svg width="25" height="24" viewBox="0 0 25 24" fill="none" xmlns="http://www.w3.org/2000/svg">
<g clip-path="url(#clip0_1699_579)">
<path d="M19.8848 0H5.91601C4.50976 0 3.32226 0.484375 2.35351 1.45312C1.38476 2.42188 0.900391 3.60938 0.900391 5.01562V18.9844C0.900391 20.3906 1.38476 21.5781 2.35351 22.5469C3.32226 23.5156 4.50976 24 5.91601 24H19.8848C21.291 24 22.4785 23.5156 23.4473 22.5469C24.416 21.5781 24.9004 20.3906 24.9004 18.9844V5.01562C24.9004 3.60938 24.416 2.42188 23.4473 1.45312C22.4785 0.484375 21.291 0 19.8848 0Z" fill="white"/>
<path d="M13.8848 11.0156H17.916C18.5723 11.0156 18.9004 11.3438 18.9004 12C18.9004 12.6562 18.5723 12.9844 17.916 12.9844H13.8848V17.0156C13.8848 17.6719 13.5566 18 12.9004 18C12.2441 18 11.916 17.6719 11.916 17.0156V12.9844H7.88477C7.22852 12.9844 6.90039 12.6562 6.90039 12C6.90039 11.3438 7.22852 11.0156 7.88477 11.0156H11.916V6.98438C11.916 6.32812 12.2441 6 12.9004 6C13.5566 6 13.8848 6.32812 13.8848 6.98438V11.0156Z" fill="#0A6E8D"/>
</g>
<defs>
<clipPath id="clip0_1699_579">
<rect width="24" height="24" fill="white" transform="translate(0.900391)"/>
</clipPath>
</defs>
</svg>
