<svg width="25" height="25" viewBox="0 0 25 25" fill="none" xmlns="http://www.w3.org/2000/svg">
<g clip-path="url(#clip0_110_1874)">
<path d="M19.8844 0.70874H5.91565C4.5094 0.70874 3.3219 1.19312 2.35315 2.16187C1.3844 3.13062 0.900024 4.31812 0.900024 5.72437V19.6931C0.900024 21.0994 1.3844 22.2869 2.35315 23.2556C3.3219 24.2244 4.5094 24.7087 5.91565 24.7087H19.8844C21.2906 24.7087 22.4782 24.2244 23.4469 23.2556C24.4157 22.2869 24.9 21.0994 24.9 19.6931V5.72437C24.9 4.31812 24.4157 3.13062 23.4469 2.16187C22.4782 1.19312 21.2906 0.70874 19.8844 0.70874Z" fill="white"/>
<path d="M13.8844 11.7244H17.9156C18.5719 11.7244 18.9 12.0525 18.9 12.7087C18.9 13.365 18.5719 13.6931 17.9156 13.6931H13.8844V17.7244C13.8844 18.3806 13.5563 18.7087 12.9 18.7087C12.2438 18.7087 11.9156 18.3806 11.9156 17.7244V13.6931H7.8844C7.22815 13.6931 6.90002 13.365 6.90002 12.7087C6.90002 12.0525 7.22815 11.7244 7.8844 11.7244H11.9156V7.69312C11.9156 7.03687 12.2438 6.70874 12.9 6.70874C13.5563 6.70874 13.8844 7.03687 13.8844 7.69312V11.7244Z" fill="#212121"/>
</g>
<defs>
<clipPath id="clip0_110_1874">
<rect width="24" height="24" fill="white" transform="translate(0.900024 0.70874)"/>
</clipPath>
</defs>
</svg>
