<svg width="22" height="20" viewBox="0 0 22 20" fill="none" xmlns="http://www.w3.org/2000/svg">
<path d="M15 3.5H7C4.172 3.5 2.757 3.5 1.879 4.379C1 5.257 1 6.672 1 9.5V13C1 15.828 1 17.243 1.879 18.121C2.757 19 4.172 19 7 19H15C17.828 19 19.243 19 20.121 18.121C21 17.243 21 15.828 21 13V9.5C21 6.672 21 5.257 20.121 4.379C19.243 3.5 17.828 3.5 15 3.5Z" stroke="#737373" stroke-width="1.5" stroke-linecap="round" stroke-linejoin="round"/>
<path d="M11.5 7L9 11H13L10.5 15M8 3.5V2.75C8 2.048 8 1.697 7.831 1.444C7.75821 1.33522 7.66478 1.24179 7.556 1.169C7.303 1 6.952 1 6.25 1C5.548 1 5.197 1 4.944 1.169C4.83522 1.24179 4.74179 1.33522 4.669 1.444C4.5 1.697 4.5 2.048 4.5 2.75V3.5M17.5 3.5V2.75C17.5 2.048 17.5 1.697 17.331 1.444C17.2582 1.33522 17.1648 1.24179 17.056 1.169C16.803 1 16.452 1 15.75 1C15.048 1 14.697 1 14.444 1.169C14.3349 1.24168 14.2411 1.33512 14.168 1.444C14 1.697 14 2.048 14 2.75V3.5" stroke="#737373" stroke-width="1.5" stroke-linecap="round" stroke-linejoin="round"/>
</svg>
