<svg width="38" height="40" viewBox="0 0 38 40" fill="none" xmlns="http://www.w3.org/2000/svg">
<path d="M33 19.3945C33.7812 19.9284 34.4779 20.5339 35.0898 21.2109C35.7018 21.888 36.2292 22.6302 36.6719 23.4375C37.1146 24.2448 37.4401 25.0977 37.6484 25.9961C37.8568 26.8945 37.974 27.8125 38 28.75C38 30.2995 37.707 31.7578 37.1211 33.125C36.5352 34.4922 35.7279 35.6836 34.6992 36.6992C33.6706 37.7148 32.4792 38.5156 31.125 39.1016C29.7708 39.6875 28.3125 39.987 26.75 40C25.5651 40 24.4193 39.8242 23.3125 39.4727C22.2057 39.1211 21.1901 38.6133 20.2656 37.9492C19.3411 37.2852 18.5208 36.4909 17.8047 35.5664C17.0885 34.6419 16.5352 33.6198 16.1445 32.5H0.5V2.5H5.5V0H8V2.5H25.5V0H28V2.5H33V19.3945ZM3 5V10H30.5V5H28V7.5H25.5V5H8V7.5H5.5V5H3ZM15.5586 30C15.5195 29.5964 15.5 29.1797 15.5 28.75C15.5 27.2005 15.793 25.7422 16.3789 24.375C16.9648 23.0078 17.7721 21.8164 18.8008 20.8008C19.8294 19.7852 21.0208 18.9844 22.375 18.3984C23.7292 17.8125 25.1875 17.513 26.75 17.5C28.0521 17.5 29.3021 17.7148 30.5 18.1445V12.5H3V30H15.5586ZM26.75 37.5C27.9609 37.5 29.0938 37.2721 30.1484 36.8164C31.2031 36.3607 32.1276 35.7357 32.9219 34.9414C33.7161 34.1471 34.3411 33.2227 34.7969 32.168C35.2526 31.1133 35.487 29.974 35.5 28.75C35.5 27.5391 35.2721 26.4062 34.8164 25.3516C34.3607 24.2969 33.7357 23.3724 32.9414 22.5781C32.1471 21.7839 31.2227 21.1589 30.168 20.7031C29.1133 20.2474 27.974 20.013 26.75 20C25.5391 20 24.4062 20.2279 23.3516 20.6836C22.2969 21.1393 21.3724 21.7643 20.5781 22.5586C19.7839 23.3529 19.1589 24.2773 18.7031 25.332C18.2474 26.3867 18.013 27.526 18 28.75C18 29.9609 18.2279 31.0938 18.6836 32.1484C19.1393 33.2031 19.7643 34.1276 20.5586 34.9219C21.3529 35.7161 22.2773 36.3411 23.332 36.7969C24.3867 37.2526 25.526 37.487 26.75 37.5ZM28 27.5H31.75V30H25.5V22.5H28V27.5Z" fill="black"/>
</svg>
