<svg width="34" height="24" viewBox="0 0 34 24" fill="none" xmlns="http://www.w3.org/2000/svg">
<path d="M14.2775 6.82002L24.5175 17.06M24.5147 6.82002L14.2804 17.06M6.89466 21.0743C7.43129 21.7042 8.09831 22.21 8.84962 22.5568C9.60093 22.9036 10.4186 23.0831 11.2461 23.0829H27.1204C28.6359 23.0829 30.0893 22.4808 31.161 21.4092C32.2326 20.3376 32.8347 18.8841 32.8347 17.3686V6.62859C32.8347 5.11307 32.2326 3.65962 31.161 2.58798C30.0893 1.51635 28.6359 0.914307 27.1204 0.914307H11.2461C10.4184 0.914423 9.60057 1.09435 8.84925 1.44165C8.09792 1.78895 7.43102 2.29532 6.89466 2.92574L2.32323 8.29716C1.44324 9.3308 0.959961 10.644 0.959961 12.0015C0.959961 13.3589 1.44324 14.6721 2.32323 15.7057L6.89466 21.0743Z" stroke="black" stroke-width="1.8" stroke-linecap="round" stroke-linejoin="round"/>
</svg>
