<svg width="22" height="18" viewBox="0 0 22 18" fill="none" xmlns="http://www.w3.org/2000/svg">
<path d="M20.583 4.39699C20.1667 3.39144 19.4615 2.53195 18.5566 1.92724C17.6517 1.32253 16.5878 0.999756 15.4995 0.999756C14.4112 0.999756 13.3473 1.32253 12.4424 1.92724C11.5376 2.53195 10.8324 3.39144 10.416 4.39699" stroke="#F4F4F4" stroke-width="1.5" stroke-linecap="round"/>
<path d="M18.38 5.65798C18.1976 5.0354 17.8184 4.48867 17.2992 4.09972C16.78 3.71077 16.1487 3.50055 15.5 3.50055C14.8513 3.50055 14.22 3.71077 13.7008 4.09972C13.1815 4.48867 12.8024 5.0354 12.62 5.65798" stroke="#F4F4F4" stroke-width="1.5" stroke-linecap="round"/>
<path d="M6 13C6 13.2652 5.89464 13.5196 5.70711 13.7071C5.51957 13.8946 5.26522 14 5 14C4.73478 14 4.48043 13.8946 4.29289 13.7071C4.10536 13.5196 4 13.2652 4 13C4 12.7348 4.10536 12.4804 4.29289 12.2929C4.48043 12.1054 4.73478 12 5 12C5.26522 12 5.51957 12.1054 5.70711 12.2929C5.89464 12.4804 6 12.7348 6 13ZM9 13C9 13.2652 8.89464 13.5196 8.70711 13.7071C8.51957 13.8946 8.26522 14 8 14C7.73478 14 7.48043 13.8946 7.29289 13.7071C7.10536 13.5196 7 13.2652 7 13C7 12.7348 7.10536 12.4804 7.29289 12.2929C7.48043 12.1054 7.73478 12 8 12C8.26522 12 8.51957 12.1054 8.70711 12.2929C8.89464 12.4804 9 12.7348 9 13Z" fill="#F4F4F4"/>
<path d="M12 17H5C3.114 17 2.172 17 1.586 16.414C1 15.828 1 14.886 1 13C1 11.114 1 10.172 1.586 9.586C2.172 9 3.114 9 5 9H17C18.886 9 19.828 9 20.414 9.586C21 10.172 21 11.114 21 13C21 14.886 21 15.828 20.414 16.414C19.828 17 18.886 17 17 17H16M15.5 9V6" stroke="#F4F4F4" stroke-width="1.5" stroke-linecap="round"/>
</svg>
