<svg width="13" height="10" viewBox="0 0 13 10" fill="none" xmlns="http://www.w3.org/2000/svg">
<path d="M10.3647 0.311336C10.5768 0.109436 10.859 -0.00218312 11.1518 3.23606e-05C11.4446 0.00224784 11.7251 0.118124 11.9341 0.323211C12.1431 0.528297 12.2642 0.806552 12.272 1.09926C12.2797 1.39197 12.1734 1.67624 11.9756 1.89208L5.96876 9.40438C5.86547 9.51563 5.7408 9.60491 5.60222 9.66688C5.46364 9.72886 5.31398 9.76225 5.1622 9.76506C5.01042 9.76787 4.85963 9.74004 4.71885 9.68324C4.57807 9.62645 4.45018 9.54184 4.34285 9.43449L0.359369 5.45101C0.248435 5.34765 0.159459 5.22299 0.0977464 5.08449C0.0360342 4.94599 0.00285062 4.79647 0.000175718 4.64487C-0.00249918 4.49326 0.0253895 4.34267 0.0821774 4.20208C0.138965 4.06149 0.223489 3.93377 0.330707 3.82655C0.437925 3.71934 0.56564 3.63481 0.706233 3.57802C0.846826 3.52124 0.997417 3.49335 1.14902 3.49602C1.30063 3.4987 1.45014 3.53188 1.58864 3.59359C1.72715 3.6553 1.8518 3.74428 1.95517 3.85521L5.10763 7.00617L10.3361 0.344457C10.3455 0.332866 10.3541 0.321808 10.3647 0.311336Z" fill="white"/>
</svg>
