<svg width="14" height="14" viewBox="0 0 14 14" fill="none" xmlns="http://www.w3.org/2000/svg">
<path d="M0.579987 0.579996C0.790925 0.36932 1.07686 0.250985 1.37499 0.250985C1.67311 0.250985 1.95905 0.36932 2.16999 0.579996L6.99999 5.41L11.83 0.579996C11.9675 0.431909 12.1424 0.323651 12.3363 0.26663C12.5301 0.209609 12.7358 0.205935 12.9316 0.255995C13.1274 0.306054 13.306 0.407995 13.4487 0.551076C13.5915 0.694156 13.6929 0.87308 13.7425 1.069C13.7926 1.26456 13.7891 1.47002 13.7324 1.66376C13.6756 1.85751 13.5677 2.03238 13.42 2.17L8.58999 7L13.42 11.83C13.5681 11.9675 13.6763 12.1424 13.7334 12.3363C13.7904 12.5302 13.794 12.7358 13.744 12.9316C13.6939 13.1274 13.592 13.306 13.4489 13.4488C13.3058 13.5915 13.1269 13.6929 12.931 13.7425C12.7354 13.7926 12.53 13.7891 12.3362 13.7324C12.1425 13.6756 11.9676 13.5677 11.83 13.42L6.99999 8.59L2.16999 13.42C1.95659 13.6186 1.67452 13.7268 1.38304 13.7217C1.09157 13.7167 0.813392 13.5989 0.606987 13.393C0.401122 13.1866 0.283289 12.9084 0.278254 12.6169C0.273218 12.3255 0.381374 12.0434 0.579987 11.83L5.40999 7L0.579987 2.17C0.369311 1.95906 0.250977 1.67312 0.250977 1.375C0.250977 1.07687 0.369311 0.790934 0.579987 0.579996Z" fill="black"/>
</svg>
