<svg width="23" height="26" viewBox="0 0 23 26" fill="none" xmlns="http://www.w3.org/2000/svg">
<path d="M14.26 9.00001C14.26 9.63653 13.9692 10.247 13.4516 10.6971C12.934 11.1472 12.232 11.4 11.5 11.4C10.768 11.4 10.0659 11.1472 9.54834 10.6971C9.03074 10.247 8.73996 9.63653 8.73996 9.00001C8.73996 8.36349 9.03074 7.75304 9.54834 7.30296C10.0659 6.85287 10.768 6.60001 11.5 6.60001C12.232 6.60001 12.934 6.85287 13.4516 7.30296C13.9692 7.75304 14.26 8.36349 14.26 9.00001ZM5.97996 14.2V14.6C5.97996 15.4487 6.36767 16.2626 7.05781 16.8628C7.74794 17.4629 8.68396 17.8 9.65996 17.8H13.34C14.316 17.8 15.252 17.4629 15.9421 16.8628C16.6322 16.2626 17.02 15.4487 17.02 14.6V14.2C17.02 13.8818 16.8746 13.5765 16.6158 13.3515C16.357 13.1264 16.006 13 15.64 13H7.35996C6.99396 13 6.64295 13.1264 6.38415 13.3515C6.12535 13.5765 5.97996 13.8818 5.97996 14.2ZM0.459961 3.40001V22.6C0.459961 23.4487 0.847674 24.2626 1.53781 24.8628C2.22794 25.4629 3.16396 25.8 4.13996 25.8H21.62C21.864 25.8 22.098 25.7157 22.2705 25.5657C22.443 25.4157 22.54 25.2122 22.54 25C22.54 24.7878 22.443 24.5844 22.2705 24.4343C22.098 24.2843 21.864 24.2 21.62 24.2H4.13996C3.65196 24.2 3.18395 24.0314 2.83888 23.7314C2.49382 23.4313 2.29996 23.0244 2.29996 22.6H20.7C21.188 22.6 21.656 22.4314 22.001 22.1314C22.3461 21.8313 22.54 21.4244 22.54 21V3.40001C22.54 2.55132 22.1522 1.73739 21.4621 1.13727C20.772 0.537154 19.836 0.200012 18.86 0.200012H4.13996C3.16396 0.200012 2.22794 0.537154 1.53781 1.13727C0.847674 1.73739 0.459961 2.55132 0.459961 3.40001ZM18.86 1.80001C19.348 1.80001 19.816 1.96858 20.161 2.26864C20.5061 2.5687 20.7 2.97567 20.7 3.40001V21H2.29996V3.40001C2.29996 2.97567 2.49382 2.5687 2.83888 2.26864C3.18395 1.96858 3.65196 1.80001 4.13996 1.80001H18.86Z" fill="black"/>
</svg>
