<svg width="22" height="18" viewBox="0 0 22 18" fill="none" xmlns="http://www.w3.org/2000/svg">
<path d="M12.9289 11.0977C13.3692 10.6137 13.6125 9.98243 13.6109 9.32812C13.6109 7.87734 12.4414 6.70312 11 6.70312C9.55859 6.70312 8.38906 7.87734 8.38906 9.32812C8.38906 10.0102 8.64688 10.6289 9.07109 11.0977C8.5628 11.4126 8.1383 11.846 7.83383 12.3606C7.52936 12.8753 7.35398 13.456 7.32266 14.0531C7.32138 14.0785 7.32529 14.1039 7.33415 14.1278C7.343 14.1516 7.35661 14.1734 7.37415 14.1918C7.39169 14.2102 7.41279 14.2249 7.43617 14.2349C7.45955 14.2449 7.48472 14.25 7.51016 14.25H8.53906C8.6375 14.25 8.71719 14.1727 8.72422 14.0742C8.81328 12.8883 9.80234 11.9531 11.0023 11.9531C12.2023 11.9531 13.1914 12.8906 13.2805 14.0742C13.2875 14.1727 13.3672 14.25 13.4656 14.25H14.4922C14.5176 14.25 14.5428 14.2449 14.5662 14.2349C14.5896 14.2249 14.6107 14.2102 14.6282 14.1918C14.6457 14.1734 14.6593 14.1516 14.6682 14.1278C14.6771 14.1039 14.681 14.0785 14.6797 14.0531C14.6141 12.8039 13.9297 11.7164 12.9289 11.0977ZM11 10.5469C10.332 10.5469 9.78828 10.0008 9.78828 9.32812C9.78828 8.65547 10.332 8.10938 11 8.10938C11.668 8.10938 12.2117 8.65547 12.2117 9.32812C12.2117 10.0008 11.668 10.5469 11 10.5469ZM20.75 2.25H17V0.9375C17 0.834375 16.9156 0.75 16.8125 0.75H15.5C15.3969 0.75 15.3125 0.834375 15.3125 0.9375V2.25H11.8438V0.9375C11.8438 0.834375 11.7594 0.75 11.6562 0.75H10.3438C10.2406 0.75 10.1562 0.834375 10.1562 0.9375V2.25H6.6875V0.9375C6.6875 0.834375 6.60313 0.75 6.5 0.75H5.1875C5.08437 0.75 5 0.834375 5 0.9375V2.25H1.25C0.835156 2.25 0.5 2.58516 0.5 3V16.5C0.5 16.9148 0.835156 17.25 1.25 17.25H20.75C21.1648 17.25 21.5 16.9148 21.5 16.5V3C21.5 2.58516 21.1648 2.25 20.75 2.25ZM19.8125 15.5625H2.1875V3.9375H5V5.25C5 5.35313 5.08437 5.4375 5.1875 5.4375H6.5C6.60313 5.4375 6.6875 5.35313 6.6875 5.25V3.9375H10.1562V5.25C10.1562 5.35313 10.2406 5.4375 10.3438 5.4375H11.6562C11.7594 5.4375 11.8438 5.35313 11.8438 5.25V3.9375H15.3125V5.25C15.3125 5.35313 15.3969 5.4375 15.5 5.4375H16.8125C16.9156 5.4375 17 5.35313 17 5.25V3.9375H19.8125V15.5625Z" fill="black"/>
</svg>
