<svg width="18" height="20" viewBox="0 0 18 20" fill="none" xmlns="http://www.w3.org/2000/svg">
<path d="M4 9.16666C4 6.80999 4 5.63082 4.7325 4.89916C5.46417 4.16666 6.64333 4.16666 9 4.16666H11.5C13.8567 4.16666 15.0358 4.16666 15.7675 4.89916C16.5 5.63082 16.5 6.80999 16.5 9.16666V13.3333C16.5 15.69 16.5 16.8692 15.7675 17.6008C15.0358 18.3333 13.8567 18.3333 11.5 18.3333H9C6.64333 18.3333 5.46417 18.3333 4.7325 17.6008C4 16.8692 4 15.69 4 13.3333V9.16666Z" stroke="#3A3A3A" stroke-width="1.5"/>
<path d="M4 15.8333C3.33696 15.8333 2.70107 15.5699 2.23223 15.1011C1.76339 14.6323 1.5 13.9964 1.5 13.3333V8.33332C1.5 5.19082 1.5 3.61916 2.47667 2.64332C3.4525 1.66666 5.02417 1.66666 8.16667 1.66666H11.5C12.163 1.66666 12.7989 1.93005 13.2678 2.39889C13.7366 2.86773 14 3.50362 14 4.16666" stroke="#3A3A3A" stroke-width="1.5"/>
</svg>
