<svg width="16" height="20" viewBox="0 0 16 20" fill="none" xmlns="http://www.w3.org/2000/svg">
<path d="M14.7696 17.071L14.6566 18.767C14.6474 18.8904 14.595 19.0066 14.5084 19.095C14.4218 19.1834 14.3068 19.2383 14.1836 19.25H1.85157C1.72115 19.2479 1.5962 19.1973 1.50114 19.1079C1.40609 19.0186 1.34776 18.897 1.33757 18.767L1.22457 17.071C1.18231 16.4854 1.33796 15.9026 1.66657 15.416L5.33557 10C5.43301 9.86152 5.4853 9.69632 5.4853 9.527C5.4853 9.35768 5.43301 9.19248 5.33557 9.054L1.94257 4.553C1.5959 4.08623 1.40835 3.52043 1.40757 2.939V1.274C1.40757 1.13503 1.46278 1.00175 1.56105 0.903476C1.65932 0.805207 1.7926 0.75 1.93157 0.75H14.1016C14.2404 0.750265 14.3734 0.805589 14.4715 0.903829C14.5695 1.00207 14.6246 1.1352 14.6246 1.274V2.94C14.6246 3.521 14.4366 4.087 14.0906 4.554L10.7196 8.974C10.6224 9.11238 10.5702 9.27738 10.5702 9.4465C10.5702 9.61562 10.6224 9.78062 10.7196 9.919L14.3476 15.376C14.6776 15.876 14.8266 16.476 14.7686 17.072M5.37557 16.167H10.6586" stroke="#737373" stroke-width="1.5" stroke-linecap="round" stroke-linejoin="round"/>
</svg>
