<svg width="23" height="23" viewBox="0 0 23 23" fill="none" xmlns="http://www.w3.org/2000/svg">
<path fill-rule="evenodd" clip-rule="evenodd" d="M0.5 11.8058C0.5 5.73079 5.425 0.805786 11.5 0.805786C17.575 0.805786 22.5 5.73079 22.5 11.8058C22.5 17.8808 17.575 22.8058 11.5 22.8058C5.425 22.8058 0.5 17.8808 0.5 11.8058ZM12.5 5.80579C12.5 5.54057 12.3946 5.28622 12.2071 5.09868C12.0196 4.91114 11.7652 4.80579 11.5 4.80579C11.2348 4.80579 10.9804 4.91114 10.7929 5.09868C10.6054 5.28622 10.5 5.54057 10.5 5.80579V6.80579C9.70435 6.80579 8.94129 7.12186 8.37868 7.68447C7.81607 8.24708 7.5 9.01014 7.5 9.80579C7.5 10.6014 7.81607 11.3645 8.37868 11.9271C8.94129 12.4897 9.70435 12.8058 10.5 12.8058H12.5C12.7652 12.8058 13.0196 12.9111 13.2071 13.0987C13.3946 13.2862 13.5 13.5406 13.5 13.8058C13.5 14.071 13.3946 14.3254 13.2071 14.5129C13.0196 14.7004 12.7652 14.8058 12.5 14.8058H8.5C8.23478 14.8058 7.98043 14.9111 7.79289 15.0987C7.60536 15.2862 7.5 15.5406 7.5 15.8058C7.5 16.071 7.60536 16.3254 7.79289 16.5129C7.98043 16.7004 8.23478 16.8058 8.5 16.8058H10.5V17.8058C10.5 18.071 10.6054 18.3254 10.7929 18.5129C10.9804 18.7004 11.2348 18.8058 11.5 18.8058C11.7652 18.8058 12.0196 18.7004 12.2071 18.5129C12.3946 18.3254 12.5 18.071 12.5 17.8058V16.8058C12.894 16.8058 13.2841 16.7282 13.6481 16.5774C14.012 16.4267 14.3427 16.2057 14.6213 15.9271C14.8999 15.6485 15.1209 15.3178 15.2716 14.9538C15.4224 14.5899 15.5 14.1998 15.5 13.8058C15.5 13.4118 15.4224 13.0217 15.2716 12.6577C15.1209 12.2938 14.8999 11.963 14.6213 11.6845C14.3427 11.4059 14.012 11.1849 13.6481 11.0341C13.2841 10.8834 12.894 10.8058 12.5 10.8058H10.5C10.2348 10.8058 9.98043 10.7004 9.79289 10.5129C9.60536 10.3254 9.5 10.071 9.5 9.80579C9.5 9.54057 9.60536 9.28622 9.79289 9.09868C9.98043 8.91114 10.2348 8.80579 10.5 8.80579H14.5C14.7652 8.80579 15.0196 8.70043 15.2071 8.51289C15.3946 8.32536 15.5 8.071 15.5 7.80579C15.5 7.54057 15.3946 7.28622 15.2071 7.09868C15.0196 6.91114 14.7652 6.80579 14.5 6.80579H12.5V5.80579Z" fill="white"/>
</svg>
