<svg width="23" height="22" viewBox="0 0 23 22" fill="none" xmlns="http://www.w3.org/2000/svg">
<path d="M11.5 21C17.023 21 21.5 16.523 21.5 11C21.5 5.477 17.023 1 11.5 1C5.977 1 1.5 5.477 1.5 11C1.5 16.523 5.977 21 11.5 21Z" stroke="#EEEEEE" stroke-width="1.2" stroke-linecap="round" stroke-linejoin="round"/>
<path d="M14.5 7H11.5M11.5 7H10.5C9.96957 7 9.46086 7.21071 9.08579 7.58579C8.71071 7.96086 8.5 8.46957 8.5 9C8.5 9.53043 8.71071 10.0391 9.08579 10.4142C9.46086 10.7893 9.96957 11 10.5 11H12.5C13.0304 11 13.5391 11.2107 13.9142 11.5858C14.2893 11.9609 14.5 12.4696 14.5 13C14.5 13.5304 14.2893 14.0391 13.9142 14.4142C13.5391 14.7893 13.0304 15 12.5 15H11.5M11.5 7V5M8.5 15H11.5M11.5 15V17" stroke="#EEEEEE" stroke-width="1.2" stroke-linecap="round" stroke-linejoin="round"/>
</svg>
