<svg width="19" height="19" viewBox="0 0 19 19" fill="none" xmlns="http://www.w3.org/2000/svg">
<path d="M4.41675 5.41669H3.50008C3.01385 5.41669 2.54754 5.60984 2.20372 5.95366C1.8599 6.29747 1.66675 6.76379 1.66675 7.25002V15.5C1.66675 15.9863 1.8599 16.4526 2.20372 16.7964C2.54754 17.1402 3.01385 17.3334 3.50008 17.3334H11.7501C12.2363 17.3334 12.7026 17.1402 13.0464 16.7964C13.3903 16.4526 13.5834 15.9863 13.5834 15.5V14.5834" stroke="#FBFBFB" stroke-width="2" stroke-linecap="round" stroke-linejoin="round"/>
<path d="M12.6667 3.58334L15.4167 6.33334M16.6863 5.03626C17.0473 4.67523 17.2501 4.18557 17.2501 3.67501C17.2501 3.16444 17.0473 2.67478 16.6863 2.31376C16.3252 1.95273 15.8356 1.74991 15.325 1.74991C14.8144 1.74991 14.3248 1.95273 13.9638 2.31376L6.25 10V12.75H9L16.6863 5.03626Z" stroke="#FBFBFB" stroke-width="2" stroke-linecap="round" stroke-linejoin="round"/>
</svg>
