<svg width="23" height="23" viewBox="0 0 23 23" fill="none" xmlns="http://www.w3.org/2000/svg">
<path d="M8.91308 0.53125C5.66043 0.53125 3.00684 3.18484 3.00684 6.4375C3.00684 8.47094 4.04465 10.2766 5.6174 11.3422C2.60774 12.6332 0.475586 15.62 0.475586 19.0938H2.16309C2.16309 15.3559 5.17527 12.3438 8.91308 12.3438C10.7229 12.3438 12.3412 13.0854 13.5537 14.2422L9.57205 18.2238L9.51974 18.4871L8.93924 21.4672L8.67599 22.7058L9.91546 22.4426L12.8939 21.8621L13.158 21.8098L21.6748 13.293C22.6536 12.3142 22.6536 10.6858 21.6748 9.70703C21.2025 9.23851 20.5655 8.97346 19.9002 8.96857C19.235 8.96368 18.5942 9.21935 18.115 9.68088L14.767 13.0297C14.0232 12.3173 13.1565 11.7456 12.2088 11.3422C13.0116 10.8003 13.6693 10.0698 14.1244 9.21474C14.5795 8.35969 14.8181 7.40612 14.8193 6.4375C14.8193 3.18484 12.1657 0.53125 8.91308 0.53125ZM8.91308 2.21875C11.2528 2.21875 13.1318 4.09778 13.1318 6.4375C13.1318 8.77722 11.2528 10.6563 8.91308 10.6563C6.57337 10.6563 4.69434 8.77722 4.69434 6.4375C4.69434 4.09778 6.57337 2.21875 8.91308 2.21875ZM19.8818 10.6563C20.0961 10.6563 20.3206 10.7254 20.4885 10.8933C20.5682 10.9702 20.6315 11.0624 20.6748 11.1643C20.7181 11.2662 20.7404 11.3758 20.7404 11.4865C20.7404 11.5972 20.7181 11.7068 20.6748 11.8087C20.6315 11.9106 20.5682 12.0028 20.4885 12.0797L12.3142 20.2539L10.8115 20.5703L11.1279 19.0676L19.3022 10.8933C19.3775 10.8163 19.4677 10.7555 19.5674 10.7147C19.6671 10.674 19.7741 10.6541 19.8818 10.6563Z" fill="white"/>
</svg>
