<svg width="22" height="22" viewBox="0 0 22 22" fill="none" xmlns="http://www.w3.org/2000/svg">
<path d="M6 6.5L8.942 8.24C10.657 9.254 11.342 9.254 13.058 8.24L16 6.5" stroke="black" stroke-width="1.5" stroke-linecap="round" stroke-linejoin="round"/>
<path d="M10.4999 18.4955C10.0339 18.4895 8.56687 18.5075 8.09887 18.4955C4.94987 18.4155 3.37587 18.3765 2.24487 17.2385C1.11387 16.1005 1.08087 14.5655 1.01487 11.4945C0.993743 10.509 0.993743 9.52308 1.01487 8.53752C1.08087 5.46552 1.11387 3.93052 2.24487 2.79252C3.37587 1.65452 4.94987 1.61552 8.09887 1.53652C10.0389 1.48652 11.9609 1.48652 13.9009 1.53652C17.0499 1.61552 18.6239 1.65552 19.7549 2.79252C20.8859 3.92952 20.9189 5.46552 20.9849 8.53752C20.9982 9.19686 21.0025 9.85486 20.9979 10.5115" stroke="#212121" stroke-width="1.5" stroke-linecap="round" stroke-linejoin="round"/>
<path d="M14.015 13.8868C15.088 13.2468 16.024 13.5048 16.586 13.9148C16.816 14.0838 16.932 14.1678 17 14.1678C17.068 14.1678 17.183 14.0838 17.414 13.9148C17.976 13.5048 18.912 13.2468 19.985 13.8868C21.393 14.7268 21.711 17.4958 18.465 19.8318C17.845 20.2768 17.537 20.4998 17 20.4998C16.463 20.4998 16.154 20.2768 15.536 19.8318C12.289 17.4958 12.607 14.7258 14.015 13.8868Z" stroke="black" stroke-width="1.5" stroke-linecap="round" stroke-linejoin="round"/>
</svg>
