<svg width="36" height="37" viewBox="0 0 36 37" fill="none" xmlns="http://www.w3.org/2000/svg">
<circle cx="18" cy="18.5" r="17.5" stroke="#5A5959"/>
<g clip-path="url(#clip0_1234_2054)">
<path d="M22 11C22 9.114 22 8.172 21.414 7.586C20.828 7 19.886 7 18 7C16.114 7 15.172 7 14.586 7.586C14 8.172 14 9.114 14 11M8 19C8 15.493 8 13.74 8.908 12.56C9.07467 12.3433 9.25933 12.146 9.462 11.968C10.57 11 12.212 11 15.5 11H20.5C23.788 11 25.431 11 26.538 11.968C26.7407 12.1467 26.9253 12.344 27.092 12.56C28 13.74 28 15.493 28 19C28 22.507 28 24.26 27.092 25.44C26.9278 25.6552 26.7422 25.8533 26.538 26.031C25.43 27 23.788 27 20.5 27H15.5C12.213 27 10.569 27 9.462 26.032C9.25776 25.8539 9.07214 25.6556 8.908 25.44C8 24.26 8 22.507 8 19Z" stroke="#5A5959" stroke-width="1.5" stroke-linecap="round" stroke-linejoin="round"/>
<path d="M18 16C16.895 16 16 16.672 16 17.5C16 18.328 16.895 19 18 19C19.105 19 20 19.672 20 20.5C20 21.328 19.105 22 18 22M18 16C18.87 16 19.612 16.417 19.886 17M18 16V15M18 22C17.13 22 16.388 21.583 16.114 21M18 22V23M12 17H8M28 17H24" stroke="#5A5959" stroke-width="1.5" stroke-linecap="round" stroke-linejoin="round"/>
</g>
<defs>
<clipPath id="clip0_1234_2054">
<rect width="24" height="24" fill="white" transform="translate(6 7)"/>
</clipPath>
</defs>
</svg>
