<svg width="16" height="16" viewBox="0 0 16 16" fill="none" xmlns="http://www.w3.org/2000/svg">
<path d="M8 11V7.25H7.625M7.625 11H8.375M8 5.375V5" stroke="#B0B0B0" stroke-width="1.5" stroke-linecap="round" stroke-linejoin="round"/>
<path d="M14.375 10.85V5.15C14.3747 4.90051 14.3091 4.65543 14.185 4.43904C14.0608 4.22264 13.8822 4.04243 13.667 3.91625L8.70801 1.06625C8.49295 0.941381 8.24869 0.87561 8.00001 0.87561C7.75132 0.87561 7.50707 0.941381 7.29201 1.06625L2.33301 3.91625C2.11701 4.04157 1.93785 4.22159 1.81355 4.43818C1.68926 4.65477 1.62423 4.90028 1.62501 5.15V10.8515C1.62549 11.1009 1.69106 11.3458 1.81524 11.562C1.93941 11.7783 2.11788 11.9584 2.33301 12.0845L7.29201 14.9345C7.50707 15.0594 7.75132 15.1251 8.00001 15.1251C8.24869 15.1251 8.49295 15.0594 8.70801 14.9345L13.667 12.0845C13.8831 11.9591 14.0624 11.779 14.1866 11.5622C14.3109 11.3455 14.3759 11.0998 14.375 10.85Z" stroke="#B0B0B0" stroke-width="1.5" stroke-linecap="round" stroke-linejoin="round"/>
</svg>
