<svg width="14" height="20" viewBox="0 0 14 20" fill="none" xmlns="http://www.w3.org/2000/svg">
<path d="M8.2363 0.512626C8.07379 0.350105 7.88087 0.221185 7.66853 0.133228C7.4562 0.0452712 7.22863 0 6.9988 0C6.76897 0 6.54139 0.0452712 6.32906 0.133228C6.11673 0.221185 5.9238 0.350105 5.7613 0.512626L2.0483 4.22463C1.11518 5.15837 0.465148 6.33698 0.173252 7.62438C-0.118645 8.91178 -0.0405075 10.2555 0.398643 11.5004C0.837794 12.7453 1.62005 13.8406 2.65511 14.6599C3.69018 15.4792 4.93584 15.989 6.2483 16.1306V18.4896C6.2483 18.6885 6.32732 18.8793 6.46797 19.02C6.60862 19.1606 6.79939 19.2396 6.9983 19.2396C7.19721 19.2396 7.38797 19.1606 7.52863 19.02C7.66928 18.8793 7.7483 18.6885 7.7483 18.4896V16.1306C9.06088 15.989 10.3066 15.4791 11.3418 14.6596C12.3769 13.8402 13.1591 12.7447 13.5982 11.4997C14.0372 10.2547 14.1152 8.91081 13.8231 7.62334C13.531 6.33587 12.8807 5.15727 11.9473 4.22363L8.2363 0.512626ZM7.7483 14.6206V8.99063C7.7483 8.79171 7.66928 8.60095 7.52863 8.4603C7.38797 8.31964 7.19721 8.24063 6.9983 8.24063C6.79939 8.24063 6.60862 8.31964 6.46797 8.4603C6.32732 8.60095 6.2483 8.79171 6.2483 8.99063V14.6206C5.23429 14.481 4.27939 14.061 3.49107 13.4082C2.70275 12.7553 2.1123 11.8953 1.78619 10.9251C1.46007 9.95481 1.41123 8.91281 1.64516 7.91631C1.87909 6.91982 2.38651 6.0084 3.1103 5.28463L6.8213 1.57363C6.84452 1.55034 6.87211 1.53187 6.90248 1.51927C6.93285 1.50667 6.96541 1.50018 6.9983 1.50018C7.03118 1.50018 7.06374 1.50667 7.09411 1.51927C7.12449 1.53187 7.15207 1.55034 7.1753 1.57363L10.8863 5.28463C11.6101 6.0084 12.1175 6.91982 12.3514 7.91631C12.5854 8.91281 12.5365 9.95481 12.2104 10.9251C11.8843 11.8953 11.2938 12.7553 10.5055 13.4082C9.71721 14.061 8.76231 14.481 7.7483 14.6206Z" fill="#737373"/>
</svg>
