<svg width="13" height="16" viewBox="0 0 13 16" fill="none" xmlns="http://www.w3.org/2000/svg">
<path d="M3.30039 7.20005H9.70039V5.60005H3.30039V7.20005ZM10.5004 8.00005V12.8H12.1004V8.00005H10.5004ZM9.70039 13.6H3.30039V15.2H9.70039V13.6ZM2.50039 12.8V8.00005H0.900391V12.8H2.50039ZM3.30039 13.6C3.08822 13.6 2.88473 13.5158 2.73471 13.3657C2.58468 13.2157 2.50039 13.0122 2.50039 12.8H0.900391C0.900391 13.4366 1.15325 14.047 1.60333 14.4971C2.05342 14.9472 2.66387 15.2 3.30039 15.2V13.6ZM10.5004 12.8C10.5004 13.0122 10.4161 13.2157 10.2661 13.3657C10.116 13.5158 9.91256 13.6 9.70039 13.6V15.2C10.3369 15.2 10.9474 14.9472 11.3974 14.4971C11.8475 14.047 12.1004 13.4366 12.1004 12.8H10.5004ZM9.70039 7.20005C9.91256 7.20005 10.116 7.28433 10.2661 7.43436C10.4161 7.58439 10.5004 7.78788 10.5004 8.00005H12.1004C12.1004 7.36353 11.8475 6.75308 11.3974 6.30299C10.9474 5.8529 10.3369 5.60005 9.70039 5.60005V7.20005ZM3.30039 5.60005C2.66387 5.60005 2.05342 5.8529 1.60333 6.30299C1.15325 6.75308 0.900391 7.36353 0.900391 8.00005H2.50039C2.50039 7.78788 2.58468 7.58439 2.73471 7.43436C2.88473 7.28433 3.08822 7.20005 3.30039 7.20005V5.60005ZM4.10039 6.40005V4.80005H2.50039V6.40005H4.10039ZM8.90039 4.80005V6.40005H10.5004V4.80005H8.90039ZM6.50039 2.40005C7.13691 2.40005 7.74736 2.6529 8.19745 3.10299C8.64753 3.55308 8.90039 4.16353 8.90039 4.80005H10.5004C10.5004 3.73918 10.079 2.72177 9.32882 1.97162C8.57867 1.22148 7.56126 0.800049 6.50039 0.800049V2.40005ZM4.10039 4.80005C4.10039 4.16353 4.35325 3.55308 4.80333 3.10299C5.25342 2.6529 5.86387 2.40005 6.50039 2.40005V0.800049C5.43952 0.800049 4.42211 1.22148 3.67196 1.97162C2.92182 2.72177 2.50039 3.73918 2.50039 4.80005H4.10039Z" fill="#219FFB"/>
</svg>
