<svg width="16" height="14" viewBox="0 0 16 14" fill="none" xmlns="http://www.w3.org/2000/svg">
<path d="M3 13V2.052C2.99993 1.81932 3.07715 1.59322 3.21952 1.40919C3.36189 1.22515 3.56136 1.09363 3.7866 1.03526C4.01183 0.976888 4.25008 0.994986 4.46391 1.08671C4.67774 1.17843 4.85506 1.33858 4.968 1.542L11.032 12.458C11.1449 12.6614 11.3223 12.8216 11.5361 12.9133C11.7499 13.005 11.9882 13.0231 12.2134 12.9647C12.4386 12.9064 12.6381 12.7748 12.7805 12.5908C12.9229 12.4068 13.0001 12.1807 13 11.948V1M1 5H15M1 9H15" stroke="black" stroke-width="1.4" stroke-linecap="round" stroke-linejoin="round"/>
</svg>
