<svg width="40" height="40" viewBox="0 0 40 40" fill="none" xmlns="http://www.w3.org/2000/svg">
<path d="M12 14.8H11.8V15V31.6667V31.8667H12H25.3333H25.5333V31.6667V15V14.8H25.3333H12ZM24.3586 6.80809L24.4172 6.86667H24.5H30.1333V9.8H7.2V6.86667H12.8333H12.9162L12.9748 6.80809L14.5828 5.2H22.7505L24.3586 6.80809ZM9.7844 33.8823C9.19678 33.2947 8.86667 32.4977 8.86667 31.6667V11.8667H28.4667V31.6667C28.4667 32.4977 28.1366 33.2947 27.5489 33.8823C26.9613 34.4699 26.1643 34.8 25.3333 34.8H12C11.169 34.8 10.372 34.4699 9.7844 33.8823Z" fill="black" stroke="white" stroke-width="0.4"/>
</svg>
