<svg width="166" height="61" viewBox="0 0 166 61" fill="none" xmlns="http://www.w3.org/2000/svg">
<path d="M11.1519 40.6739H17.126V27.6684C17.126 23.7774 22.7359 23.2049 23.5219 27.0157L23.6976 27.8675V40.6739H29.2735V27.5307C29.2735 25.0796 28.0786 19.3046 19.7148 19.3046C13.4833 19.3046 11.1519 24.8805 11.1519 28.7255V40.6739Z" fill="#0A6E8D" stroke="white" stroke-width="1.25457"/>
<path d="M33.6665 41.0422V27.2042H37.9286V41.0422H33.6665ZM35.7699 25.0455C35.0872 25.0455 34.506 24.8149 34.0263 24.3536C33.565 23.8739 33.3344 23.2927 33.3344 22.61C33.3344 21.9274 33.565 21.3554 34.0263 20.8941C34.506 20.4329 35.0872 20.2022 35.7699 20.2022C36.4341 20.2022 36.9968 20.4329 37.4581 20.8941C37.9378 21.3554 38.1777 21.9274 38.1777 22.61C38.1777 23.2927 37.9378 23.8739 37.4581 24.3536C36.9968 24.8149 36.4341 25.0455 35.7699 25.0455ZM41.4858 27.2042H51.0063V30.7468H41.4858V27.2042ZM48.3771 41.0422H44.115V22.9145H48.3771V41.0422ZM64.1029 27.2042V31.2173H62.7468C61.5291 31.2173 60.5696 31.5125 59.8685 32.1029C59.1858 32.6933 58.8445 33.6712 58.8445 35.0365V41.0422H54.5824V27.2319H58.5954L58.9275 30.1933H58.5401C58.7246 29.2707 59.1397 28.5142 59.7855 27.9238C60.4497 27.315 61.3446 27.0105 62.47 27.0105C62.7283 27.0105 62.9867 27.029 63.245 27.0659C63.5217 27.0843 63.8077 27.1304 64.1029 27.2042ZM66.7661 34.0956C66.7661 32.638 67.089 31.3649 67.7347 30.2763C68.399 29.1692 69.3031 28.3113 70.447 27.7024C71.6094 27.0935 72.9286 26.7891 74.4047 26.7891C75.8807 26.7891 77.1907 27.0935 78.3346 27.7024C79.4786 28.3113 80.3734 29.1692 81.0192 30.2763C81.6834 31.3649 82.0155 32.638 82.0155 34.0956C82.0155 35.5532 81.6834 36.8263 81.0192 37.9149C80.3734 39.0034 79.4786 39.8522 78.3346 40.461C77.1907 41.0699 75.8807 41.3743 74.4047 41.3743C72.9286 41.3743 71.6094 41.0699 70.447 40.461C69.3031 39.8522 68.399 39.0034 67.7347 37.9149C67.089 36.8263 66.7661 35.5532 66.7661 34.0956ZM71.0559 34.0679C71.0559 34.769 71.1942 35.3871 71.471 35.9222C71.7662 36.4388 72.1629 36.8447 72.6611 37.1399C73.1592 37.4167 73.7404 37.5551 74.4047 37.5551C75.0689 37.5551 75.6501 37.4167 76.1482 37.1399C76.6464 36.8447 77.0339 36.4388 77.3106 35.9222C77.5874 35.3871 77.7258 34.769 77.7258 34.0679C77.7258 33.3668 77.5874 32.7579 77.3106 32.2413C77.0339 31.7247 76.6464 31.328 76.1482 31.0512C75.6501 30.756 75.0689 30.6084 74.4047 30.6084C73.7404 30.6084 73.1592 30.756 72.6611 31.0512C72.1629 31.328 71.7662 31.7247 71.471 32.2413C71.1942 32.7579 71.0559 33.3668 71.0559 34.0679ZM99.145 41.0422H95.132V20.1746H99.3941V28.8095C99.8185 28.1821 100.446 27.684 101.276 27.315C102.125 26.9275 103.047 26.7338 104.044 26.7338C105.335 26.7338 106.451 27.0474 107.392 27.6747C108.352 28.3021 109.09 29.1785 109.607 30.304C110.123 31.4294 110.381 32.7487 110.381 34.2616C110.381 35.6823 110.095 36.937 109.524 38.0256C108.97 39.0957 108.186 39.926 107.171 40.5164C106.175 41.1068 105.022 41.402 103.712 41.402C102.752 41.402 101.876 41.2083 101.082 40.8208C100.307 40.4149 99.7354 39.8983 99.3664 39.271L99.145 41.0422ZM99.4218 34.0402C99.4218 34.7229 99.5602 35.3318 99.8369 35.8668C100.132 36.3834 100.529 36.7894 101.027 37.0846C101.544 37.3613 102.134 37.4997 102.798 37.4997C103.481 37.4997 104.062 37.3521 104.542 37.0569C105.04 36.7617 105.418 36.3558 105.677 35.8392C105.953 35.3225 106.092 34.7229 106.092 34.0402C106.092 33.3575 105.953 32.7579 105.677 32.2413C105.418 31.7247 105.04 31.3187 104.542 31.0235C104.062 30.7283 103.481 30.5807 102.798 30.5807C102.134 30.5807 101.544 30.7283 101.027 31.0235C100.529 31.3003 100.132 31.697 99.8369 32.2136C99.5602 32.7302 99.4218 33.3391 99.4218 34.0402ZM114.495 41.0422V27.2042H118.758V41.0422H114.495ZM116.599 25.0455C115.916 25.0455 115.335 24.8149 114.855 24.3536C114.394 23.8739 114.163 23.2927 114.163 22.61C114.163 21.9274 114.394 21.3554 114.855 20.8941C115.335 20.4329 115.916 20.2022 116.599 20.2022C117.263 20.2022 117.826 20.4329 118.287 20.8941C118.767 21.3554 119.007 21.9274 119.007 22.61C119.007 23.2927 118.767 23.8739 118.287 24.3536C117.826 24.8149 117.263 25.0455 116.599 25.0455ZM127.878 41.0422H123.616V20.1746H127.878V41.0422ZM136.998 41.0422H132.736V20.1746H136.998V41.0422ZM140.859 36.6694H144.9C144.937 37.1491 145.131 37.5274 145.481 37.8041C145.832 38.0809 146.33 38.2193 146.976 38.2193C147.64 38.2193 148.129 38.1086 148.443 37.8872C148.756 37.6658 148.913 37.3798 148.913 37.0292C148.913 36.8263 148.83 36.6233 148.664 36.4203C148.516 36.2174 148.184 36.0606 147.668 35.9499L145.122 35.3963C143.848 35.1196 142.898 34.6768 142.271 34.0679C141.644 33.4406 141.33 32.518 141.33 31.3003C141.33 30.3409 141.579 29.529 142.077 28.8648C142.594 28.1821 143.286 27.6655 144.153 27.315C145.02 26.9459 146.007 26.7614 147.114 26.7614C148.184 26.7614 149.125 26.9552 149.937 27.3426C150.767 27.7301 151.413 28.2744 151.874 28.9755C152.336 29.6766 152.566 30.4977 152.566 31.4387H148.526C148.526 30.959 148.387 30.5807 148.111 30.304C147.834 30.0087 147.437 29.8611 146.92 29.8611C146.441 29.8611 146.053 29.9811 145.758 30.2209C145.481 30.4423 145.343 30.7375 145.343 31.1066C145.343 31.697 145.841 32.1029 146.837 32.3243L149.411 32.8778C150.555 33.1177 151.422 33.5328 152.013 34.1232C152.622 34.6952 152.926 35.5347 152.926 36.6418C152.926 37.6196 152.668 38.4684 152.151 39.1879C151.635 39.9075 150.915 40.461 149.993 40.8485C149.07 41.2175 148.009 41.402 146.81 41.402C144.983 41.402 143.535 40.9684 142.465 40.1013C141.394 39.2156 140.859 38.0717 140.859 36.6694Z" fill="#0A6E8D"/>
</svg>
