<svg width="145" height="38" viewBox="0 0 145 38" fill="none" xmlns="http://www.w3.org/2000/svg">
<path d="M1.15186 28.6739H7.12602V15.6684C7.12602 11.7774 12.7359 11.2049 13.5219 15.0157L13.6976 15.8675V28.6739H19.2735V15.5307C19.2735 13.0796 18.0786 7.30463 9.71482 7.30461C3.48334 7.30459 1.15186 12.8805 1.15186 16.7255V28.6739Z" fill="#0A6E8D" stroke="white" stroke-width="1.25457"/>
<path d="M23.6665 29.0422V15.2042H27.9286V29.0422H23.6665ZM25.7699 13.0455C25.0872 13.0455 24.506 12.8149 24.0263 12.3536C23.565 11.8739 23.3344 11.2927 23.3344 10.61C23.3344 9.92736 23.565 9.35539 24.0263 8.89413C24.506 8.43286 25.0872 8.20223 25.7699 8.20223C26.4341 8.20223 26.9968 8.43286 27.4581 8.89413C27.9378 9.35539 28.1777 9.92736 28.1777 10.61C28.1777 11.2927 27.9378 11.8739 27.4581 12.3536C26.9968 12.8149 26.4341 13.0455 25.7699 13.0455ZM31.4858 15.2042H41.0063V18.7468H31.4858V15.2042ZM38.3771 29.0422H34.115V10.9145H38.3771V29.0422ZM54.1029 15.2042V19.2173H52.7468C51.5291 19.2173 50.5696 19.5125 49.8685 20.1029C49.1858 20.6933 48.8445 21.6712 48.8445 23.0365V29.0422H44.5824V15.2319H48.5954L48.9275 18.1933H48.5401C48.7246 17.2707 49.1397 16.5142 49.7855 15.9238C50.4497 15.315 51.3446 15.0105 52.47 15.0105C52.7283 15.0105 52.9867 15.029 53.245 15.0659C53.5217 15.0843 53.8077 15.1304 54.1029 15.2042ZM56.7661 22.0956C56.7661 20.638 57.089 19.3649 57.7347 18.2763C58.399 17.1692 59.3031 16.3113 60.447 15.7024C61.6094 15.0935 62.9286 14.7891 64.4047 14.7891C65.8807 14.7891 67.1907 15.0935 68.3346 15.7024C69.4786 16.3113 70.3734 17.1692 71.0192 18.2763C71.6834 19.3649 72.0155 20.638 72.0155 22.0956C72.0155 23.5532 71.6834 24.8263 71.0192 25.9149C70.3734 27.0034 69.4786 27.8522 68.3346 28.461C67.1907 29.0699 65.8807 29.3743 64.4047 29.3743C62.9286 29.3743 61.6094 29.0699 60.447 28.461C59.3031 27.8522 58.399 27.0034 57.7347 25.9149C57.089 24.8263 56.7661 23.5532 56.7661 22.0956ZM61.0559 22.0679C61.0559 22.769 61.1942 23.3871 61.471 23.9222C61.7662 24.4388 62.1629 24.8447 62.6611 25.1399C63.1592 25.4167 63.7404 25.5551 64.4047 25.5551C65.0689 25.5551 65.6501 25.4167 66.1482 25.1399C66.6464 24.8447 67.0339 24.4388 67.3106 23.9222C67.5874 23.3871 67.7258 22.769 67.7258 22.0679C67.7258 21.3668 67.5874 20.7579 67.3106 20.2413C67.0339 19.7247 66.6464 19.328 66.1482 19.0512C65.6501 18.756 65.0689 18.6084 64.4047 18.6084C63.7404 18.6084 63.1592 18.756 62.6611 19.0512C62.1629 19.328 61.7662 19.7247 61.471 20.2413C61.1942 20.7579 61.0559 21.3668 61.0559 22.0679ZM89.145 29.0422H85.132V8.17455H89.3941V16.8095C89.8185 16.1821 90.4458 15.684 91.2761 15.315C92.1248 14.9275 93.0473 14.7338 94.0437 14.7338C95.3352 14.7338 96.4515 15.0474 97.3925 15.6747C98.3519 16.3021 99.0899 17.1785 99.6065 18.304C100.123 19.4294 100.381 20.7487 100.381 22.2616C100.381 23.6823 100.095 24.937 99.5235 26.0256C98.97 27.0957 98.1858 27.926 97.1711 28.5164C96.1747 29.1068 95.0216 29.402 93.7116 29.402C92.7521 29.402 91.8757 29.2083 91.0823 28.8208C90.3074 28.4149 89.7354 27.8983 89.3664 27.271L89.145 29.0422ZM89.4218 22.0402C89.4218 22.7229 89.5602 23.3318 89.8369 23.8668C90.1321 24.3834 90.5288 24.7894 91.027 25.0846C91.5436 25.3613 92.134 25.4997 92.7983 25.4997C93.4809 25.4997 94.0621 25.3521 94.5418 25.0569C95.04 24.7617 95.4182 24.3558 95.6766 23.8392C95.9533 23.3225 96.0917 22.7229 96.0917 22.0402C96.0917 21.3575 95.9533 20.7579 95.6766 20.2413C95.4182 19.7247 95.04 19.3187 94.5418 19.0235C94.0621 18.7283 93.4809 18.5807 92.7983 18.5807C92.134 18.5807 91.5436 18.7283 91.027 19.0235C90.5288 19.3003 90.1321 19.697 89.8369 20.2136C89.5602 20.7302 89.4218 21.3391 89.4218 22.0402ZM104.495 29.0422V15.2042H108.758V29.0422H104.495ZM106.599 13.0455C105.916 13.0455 105.335 12.8149 104.855 12.3536C104.394 11.8739 104.163 11.2927 104.163 10.61C104.163 9.92736 104.394 9.35539 104.855 8.89413C105.335 8.43286 105.916 8.20223 106.599 8.20223C107.263 8.20223 107.826 8.43286 108.287 8.89413C108.767 9.35539 109.007 9.92736 109.007 10.61C109.007 11.2927 108.767 11.8739 108.287 12.3536C107.826 12.8149 107.263 13.0455 106.599 13.0455ZM117.878 29.0422H113.616V8.17455H117.878V29.0422ZM126.998 29.0422H122.736V8.17455H126.998V29.0422ZM130.859 24.6694H134.9C134.937 25.1491 135.131 25.5274 135.481 25.8041C135.832 26.0809 136.33 26.2193 136.976 26.2193C137.64 26.2193 138.129 26.1086 138.443 25.8872C138.756 25.6658 138.913 25.3798 138.913 25.0292C138.913 24.8263 138.83 24.6233 138.664 24.4203C138.516 24.2174 138.184 24.0606 137.668 23.9499L135.122 23.3963C133.848 23.1196 132.898 22.6768 132.271 22.0679C131.644 21.4406 131.33 20.518 131.33 19.3003C131.33 18.3409 131.579 17.529 132.077 16.8648C132.594 16.1821 133.286 15.6655 134.153 15.315C135.02 14.9459 136.007 14.7614 137.114 14.7614C138.184 14.7614 139.125 14.9552 139.937 15.3426C140.767 15.7301 141.413 16.2744 141.874 16.9755C142.336 17.6766 142.566 18.4977 142.566 19.4387H138.526C138.526 18.959 138.387 18.5807 138.111 18.304C137.834 18.0087 137.437 17.8611 136.92 17.8611C136.441 17.8611 136.053 17.9811 135.758 18.2209C135.481 18.4423 135.343 18.7375 135.343 19.1066C135.343 19.697 135.841 20.1029 136.837 20.3243L139.411 20.8778C140.555 21.1177 141.422 21.5328 142.013 22.1232C142.622 22.6952 142.926 23.5347 142.926 24.6418C142.926 25.6196 142.668 26.4684 142.151 27.1879C141.635 27.9075 140.915 28.461 139.993 28.8485C139.07 29.2175 138.009 29.402 136.81 29.402C134.983 29.402 133.535 28.9684 132.465 28.1013C131.394 27.2156 130.859 26.0717 130.859 24.6694Z" fill="#0A6E8D"/>
</svg>
