<svg width="24" height="24" viewBox="0 0 24 24" fill="none" xmlns="http://www.w3.org/2000/svg">
<path fill-rule="evenodd" clip-rule="evenodd" d="M15.6801 5.3479C15.2927 5.34738 14.909 5.42316 14.5509 5.57093C14.1927 5.71869 13.8672 5.93555 13.5929 6.20911C13.3186 6.48267 13.1009 6.80758 12.9522 7.16529C12.8034 7.523 12.7266 7.9065 12.7261 8.2939C12.7267 8.6813 12.8037 9.06478 12.9525 9.42244C13.1014 9.7801 13.3192 10.1049 13.5936 10.3784C13.868 10.6519 14.1936 10.8686 14.5518 11.0163C14.9099 11.1639 15.2937 11.2396 15.6811 11.2389C16.4633 11.24 17.2139 10.9303 17.7679 10.3781C18.3218 9.82579 18.6337 9.07612 18.6351 8.2939C18.6345 7.9065 18.5577 7.523 18.409 7.16529C18.2603 6.80758 18.0425 6.48267 17.7682 6.20911C17.4939 5.93555 17.1684 5.71869 16.8103 5.57093C16.4522 5.42316 16.0675 5.34738 15.6801 5.3479ZM14.2261 8.2939C14.2266 8.1034 14.2647 7.91487 14.3381 7.73908C14.4115 7.5633 14.5188 7.4037 14.6539 7.26941C14.7891 7.13513 14.9493 7.02878 15.1256 6.95646C15.3018 6.88413 15.4906 6.84725 15.6811 6.8479C16.4871 6.8479 17.1351 7.4979 17.1351 8.2939C17.1338 8.67829 16.9798 9.04643 16.7072 9.31739C16.4345 9.58835 16.0655 9.73997 15.6811 9.7389C15.2967 9.73997 14.9276 9.58835 14.6549 9.31739C14.3823 9.04643 14.2284 8.67829 14.2271 8.2939H14.2261Z" fill="black"/>
<path fill-rule="evenodd" clip-rule="evenodd" d="M9.53002 20.878C9.81939 20.4863 9.97126 20.0099 9.96202 19.523C10.354 19.639 10.742 19.653 11.114 19.583C11.882 19.437 12.451 18.951 12.753 18.551L12.758 18.544L12.763 18.537C12.9733 18.25 13.1178 17.9203 13.1862 17.5711C13.2546 17.222 13.2454 16.8621 13.159 16.517C13.086 16.216 12.9644 15.9289 12.799 15.667C12.7229 15.5265 12.6317 15.3947 12.527 15.274L12.536 15.264L13 14.802C13.382 14.985 13.796 15.1 14.158 15.175C14.6593 15.2778 15.1693 15.3321 15.681 15.337C19.582 15.337 22.75 12.187 22.75 8.293C22.75 4.401 19.582 1.25 15.68 1.25C11.78 1.25 8.61102 4.4 8.61102 8.293C8.61535 9.20146 8.8095 10.099 9.18102 10.928L1.92502 18.154C1.58628 18.4966 1.36021 18.9344 1.27702 19.409C1.17802 20.012 1.34002 20.683 1.92502 21.265L2.80702 22.143C3.15641 22.451 3.58606 22.6536 4.04602 22.727C4.36008 22.7755 4.68119 22.7477 4.98228 22.6461C5.28337 22.5444 5.5556 22.3719 5.77602 22.143L6.34202 21.579C6.82969 21.8641 7.40439 21.9622 7.95902 21.855C8.57799 21.7323 9.1319 21.3903 9.51902 20.892L9.52502 20.885L9.53002 20.878ZM10.111 8.293C10.111 5.235 12.602 2.75 15.681 2.75C18.759 2.75 21.25 5.235 21.25 8.293C21.25 11.353 18.76 13.837 15.68 13.837C15.408 13.837 14.937 13.804 14.462 13.707C13.965 13.603 13.575 13.45 13.367 13.277C13.2233 13.158 13.0403 13.0969 12.8539 13.1056C12.6675 13.1143 12.4911 13.1922 12.359 13.324L11.477 14.202C11.276 14.402 11.082 14.63 10.979 14.893C10.849 15.226 10.891 15.546 11.039 15.813C11.127 15.97 11.269 16.12 11.328 16.183L11.348 16.204C11.418 16.281 11.455 16.331 11.483 16.387L11.51 16.44L11.54 16.482L11.547 16.492C11.6164 16.608 11.668 16.7337 11.7 16.865C11.754 17.094 11.754 17.365 11.55 17.655C11.371 17.8845 11.118 18.0449 10.834 18.109C10.577 18.158 10.157 18.126 9.59702 17.569C9.45644 17.4289 9.26603 17.3502 9.06752 17.3502C8.86902 17.3502 8.67861 17.4289 8.53802 17.569L8.24402 17.861C8.10811 17.9961 8.02907 18.1781 8.02312 18.3696C8.01717 18.5612 8.08476 18.7477 8.21202 18.891C8.29778 19.0067 8.36524 19.1348 8.41202 19.271C8.48702 19.496 8.49902 19.737 8.31602 19.997C8.19602 20.152 7.95302 20.329 7.67702 20.381C7.44302 20.426 7.14302 20.393 6.80502 20.056C6.66444 19.9159 6.47403 19.8372 6.27552 19.8372C6.07702 19.8372 5.88661 19.9159 5.74602 20.056L4.71702 21.081C4.55202 21.245 4.40702 21.264 4.26502 21.243C4.11066 21.2158 3.96517 21.1517 3.84102 21.056L2.98402 20.202C2.74502 19.965 2.73602 19.782 2.75702 19.652C2.78921 19.4879 2.86802 19.3365 2.98402 19.216L10.628 11.603C10.7478 11.4836 10.8234 11.327 10.8425 11.1589C10.8616 10.9908 10.823 10.8212 10.733 10.678L10.731 10.675C10.7016 10.6262 10.6742 10.5761 10.649 10.525C10.2997 9.83255 10.1155 9.06857 10.111 8.293ZM8.20102 18.876C8.20102 18.878 8.20302 18.879 8.20502 18.881L8.20402 18.88L8.20102 18.876Z" fill="black"/>
</svg>
