<svg width="26" height="25" viewBox="0 0 26 25" fill="none" xmlns="http://www.w3.org/2000/svg">
<path d="M23.6701 20.8072L24.3534 21.4943L23.6689 20.8072H23.6701ZM7.38739 18.0223L8.06939 17.3352L7.3861 18.0223H7.38739ZM2.05798 4.34101L1.37598 3.65514L2.05927 4.3423L2.05798 4.34101ZM17.4779 16.9425L18.0682 16.3574L16.7003 14.9831L16.1139 15.5682L17.4779 16.9425ZM20.0431 16.112L22.5115 17.454L23.4351 15.7516L20.968 14.4108L20.0431 16.112ZM22.9856 20.12L21.1514 21.9451L22.5167 23.3182L24.3509 21.4943L22.9856 20.12ZM20.0328 22.5316C18.1599 22.7072 13.3161 22.5509 8.06939 17.3352L6.70281 18.7082C12.4275 24.4006 17.877 24.6796 20.2136 24.4613L20.0315 22.5316H20.0328ZM8.06939 17.3352C3.06935 12.3623 2.2401 8.18114 2.13677 6.36634L0.201853 6.47614C0.33102 8.7598 1.3579 13.3943 6.70281 18.7082L8.06939 17.3352ZM9.84544 9.35268L10.2161 8.98326L8.85214 7.61022L8.48144 7.97834L9.84673 9.35139L9.84544 9.35268ZM10.5106 4.28805L8.88314 2.11289L7.33185 3.27539L8.95935 5.44926L10.5106 4.28805ZM3.40519 1.63884L1.37727 3.65384L2.74385 5.02818L4.77048 3.01318L3.40519 1.63884ZM9.16344 8.66551C8.47885 7.97834 8.47885 7.97834 8.47885 7.98093H8.47627L8.47239 7.98609C8.41141 8.04834 8.35648 8.11624 8.30835 8.18888C8.2386 8.29222 8.16239 8.42784 8.09781 8.59964C7.94053 9.04309 7.90135 9.51983 7.98414 9.98301C8.15723 11.1003 8.92706 12.5767 10.8981 14.5374L12.2647 13.1631C10.4189 11.3289 9.97977 10.2129 9.89839 9.68593C9.85964 9.43534 9.89969 9.31134 9.91131 9.28293C9.91777 9.26484 9.92035 9.26355 9.91131 9.27518C9.89992 9.29309 9.88695 9.30995 9.87256 9.32555L9.85964 9.33847C9.85547 9.34248 9.85116 9.34636 9.84673 9.35009L9.16214 8.66551H9.16344ZM10.8981 14.5374C12.8705 16.4982 14.3546 17.2628 15.4732 17.4333C16.0454 17.5212 16.5066 17.4514 16.8566 17.321C17.0523 17.2485 17.2354 17.1456 17.3991 17.0161C17.4213 16.9976 17.4429 16.9782 17.4637 16.958L17.4727 16.9503L17.4766 16.9464L17.4779 16.9438C17.4779 16.9438 17.4792 16.9425 16.7959 16.2553C16.1113 15.5682 16.1152 15.5669 16.1152 15.5669L16.1178 15.5643L16.1204 15.5617L16.1281 15.5553L16.141 15.5423C16.1565 15.5284 16.1729 15.5155 16.1901 15.5036C16.203 15.4946 16.1991 15.4984 16.1811 15.5062C16.1488 15.5178 16.0222 15.5578 15.7677 15.5191C15.233 15.4364 14.1092 14.9973 12.2647 13.1631L10.8981 14.5374ZM8.88314 2.11159C7.56564 0.354927 4.97714 0.0759269 3.40519 1.63884L4.77048 3.01318C5.45764 2.32989 6.67698 2.40093 7.33185 3.27539L8.88185 2.11159H8.88314ZM2.13806 6.36764C2.11223 5.92072 2.3176 5.45314 2.74385 5.02947L1.37598 3.65514C0.682353 4.34489 0.135978 5.32139 0.201853 6.47614L2.13806 6.36764ZM21.1514 21.9451C20.7975 22.2991 20.4151 22.498 20.0341 22.5328L20.2136 24.4613C21.163 24.3722 21.9393 23.8943 22.518 23.3195L21.1514 21.9451ZM10.2161 8.98326C11.4884 7.71872 11.5827 5.72051 10.5119 4.28934L8.96064 5.45055C9.48119 6.14676 9.40369 7.05997 8.85085 7.61151L10.2161 8.98326ZM22.5128 17.4553C23.5681 18.0288 23.7321 19.3799 22.9869 20.1213L24.3534 21.4943C26.0843 19.7726 25.5508 16.9012 23.4364 15.7529L22.5128 17.4553ZM18.0682 16.3587C18.5642 15.8653 19.3624 15.7438 20.0444 16.1133L20.9693 14.4121C19.5691 13.6501 17.8331 13.8606 16.7016 14.9843L18.0682 16.3587Z" fill="black"/>
</svg>
