<svg width="22" height="20" viewBox="0 0 22 20" fill="none" xmlns="http://www.w3.org/2000/svg">
<path fill-rule="evenodd" clip-rule="evenodd" d="M17 7.75C17.5967 7.75 18.169 7.51295 18.591 7.09099C19.0129 6.66903 19.25 6.09674 19.25 5.5C19.25 4.90326 19.0129 4.33097 18.591 3.90901C18.169 3.48705 17.5967 3.25 17 3.25C16.4033 3.25 15.831 3.48705 15.409 3.90901C14.9871 4.33097 14.75 4.90326 14.75 5.5C14.75 6.09674 14.9871 6.66903 15.409 7.09099C15.831 7.51295 16.4033 7.75 17 7.75ZM17 10C17.8416 9.99993 18.6664 9.76383 19.3806 9.31852C20.0947 8.87321 20.6697 8.23654 21.0402 7.48083C21.4107 6.72512 21.5618 5.88066 21.4764 5.04337C21.391 4.20608 21.0725 3.40952 20.557 2.74417C20.0416 2.07882 19.3499 1.57135 18.5606 1.27941C17.7712 0.987461 16.9158 0.92274 16.0914 1.09259C15.2671 1.26245 14.507 1.66007 13.8973 2.2403C13.2876 2.82052 12.8529 3.56009 12.6425 4.375H1.625C1.32663 4.375 1.04048 4.49353 0.829505 4.70451C0.618527 4.91548 0.5 5.20163 0.5 5.5C0.5 5.79837 0.618527 6.08452 0.829505 6.2955C1.04048 6.50647 1.32663 6.625 1.625 6.625H12.6425C12.8919 7.59102 13.4553 8.44676 14.2441 9.05768C15.0329 9.66861 16.0023 10.0001 17 10ZM7.25 14.5C7.25 15.0967 7.01295 15.669 6.59099 16.091C6.16903 16.5129 5.59674 16.75 5 16.75C4.40326 16.75 3.83097 16.5129 3.40901 16.091C2.98705 15.669 2.75 15.0967 2.75 14.5C2.75 13.9033 2.98705 13.331 3.40901 12.909C3.83097 12.4871 4.40326 12.25 5 12.25C5.59674 12.25 6.16903 12.4871 6.59099 12.909C7.01295 13.331 7.25 13.9033 7.25 14.5ZM9.3575 15.625C9.08164 16.6835 8.42978 17.6054 7.52374 18.2183C6.6177 18.8312 5.51947 19.0933 4.43431 18.9554C3.34914 18.8176 2.35129 18.2894 1.62724 17.4694C0.903185 16.6494 0.502477 15.5939 0.5 14.5C0.499628 13.4045 0.898921 12.3464 1.623 11.5243C2.34707 10.7021 3.3462 10.1724 4.43301 10.0343C5.51981 9.8963 6.61965 10.1595 7.52626 10.7745C8.43287 11.3895 9.08399 12.3142 9.3575 13.375H20.375C20.6734 13.375 20.9595 13.4935 21.1705 13.7045C21.3815 13.9155 21.5 14.2016 21.5 14.5C21.5 14.7984 21.3815 15.0845 21.1705 15.2955C20.9595 15.5065 20.6734 15.625 20.375 15.625H9.3575Z" fill="#707070" stroke="white" stroke-width="0.6"/>
</svg>
