<svg width="9" height="14" viewBox="0 0 9 14" fill="none" xmlns="http://www.w3.org/2000/svg">
<path d="M2.1875 4.375C2.1875 3.40977 2.97227 2.625 3.9375 2.625H4.8125C5.77773 2.625 6.5625 3.40977 6.5625 4.375V4.47344C6.5625 5.06953 6.25898 5.62461 5.75859 5.94453L4.60469 6.68555C3.91562 7.12852 3.5 7.89141 3.5 8.70898V8.75C3.5 9.23398 3.89102 9.625 4.375 9.625C4.85898 9.625 5.25 9.23398 5.25 8.75V8.71172C5.25 8.4875 5.36484 8.27969 5.55078 8.15937L6.70469 7.41836C7.70547 6.77305 8.3125 5.66563 8.3125 4.47344V4.375C8.3125 2.4418 6.7457 0.875 4.8125 0.875H3.9375C2.0043 0.875 0.4375 2.4418 0.4375 4.375C0.4375 4.85898 0.828516 5.25 1.3125 5.25C1.79648 5.25 2.1875 4.85898 2.1875 4.375ZM4.375 13.125C4.66508 13.125 4.94328 13.0098 5.1484 12.8046C5.35352 12.5995 5.46875 12.3213 5.46875 12.0312C5.46875 11.7412 5.35352 11.463 5.1484 11.2579C4.94328 11.0527 4.66508 10.9375 4.375 10.9375C4.08492 10.9375 3.80672 11.0527 3.6016 11.2579C3.39648 11.463 3.28125 11.7412 3.28125 12.0312C3.28125 12.3213 3.39648 12.5995 3.6016 12.8046C3.80672 13.0098 4.08492 13.125 4.375 13.125Z" fill="#0A6E8D"/>
</svg>
