<svg width="20" height="21" viewBox="0 0 20 21" fill="none" xmlns="http://www.w3.org/2000/svg">
<path d="M18 6.5C16.597 3.54 13.537 1.5 10 1.5C8.8181 1.5 7.64778 1.73279 6.55585 2.18508C5.46392 2.63738 4.47177 3.30031 3.63604 4.13604C2.80031 4.97177 2.13738 5.96392 1.68508 7.05585C1.23279 8.14778 1 9.3181 1 10.5C1 11.6819 1.23279 12.8522 1.68508 13.9442C2.13738 15.0361 2.80031 16.0282 3.63604 16.864C4.47177 17.6997 5.46392 18.3626 6.55585 18.8149C7.64778 19.2672 8.8181 19.5 10 19.5C12.3869 19.5 14.6761 18.5518 16.364 16.864C18.0518 15.1761 19 12.8869 19 10.5M19 1.5V7.5H13" stroke="#244047" stroke-width="2"/>
</svg>
