<svg width="18" height="18" viewBox="0 0 18 18" fill="none" xmlns="http://www.w3.org/2000/svg">
<path d="M3.10721 0C2.28313 0 1.4928 0.327366 0.910081 0.910081C0.327366 1.4928 0 2.28313 0 3.10721V14.2932C0 15.1173 0.327366 15.9076 0.910081 16.4903C1.4928 17.073 2.28313 17.4004 3.10721 17.4004H14.2932C15.1173 17.4004 15.9076 17.073 16.4903 16.4903C17.073 15.9076 17.4004 15.1173 17.4004 14.2932V3.10721C17.4004 2.28313 17.073 1.4928 16.4903 0.910081C15.9076 0.327366 15.1173 0 14.2932 0H3.10721ZM1.24288 3.10721C1.24288 2.61276 1.4393 2.13856 1.78893 1.78893C2.13856 1.4393 2.61276 1.24288 3.10721 1.24288H14.2932C14.7876 1.24288 15.2618 1.4393 15.6115 1.78893C15.9611 2.13856 16.1575 2.61276 16.1575 3.10721V14.2932C16.1575 14.7876 15.9611 15.2618 15.6115 15.6115C15.2618 15.9611 14.7876 16.1575 14.2932 16.1575H3.10721C2.61276 16.1575 2.13856 15.9611 1.78893 15.6115C1.4393 15.2618 1.24288 14.7876 1.24288 14.2932V3.10721ZM4.97154 4.3501C4.97154 4.18528 4.90607 4.02721 4.78952 3.91067C4.67298 3.79413 4.51491 3.72865 4.3501 3.72865C4.18528 3.72865 4.02721 3.79413 3.91067 3.91067C3.79413 4.02721 3.72865 4.18528 3.72865 4.3501V5.59298C3.72865 5.7578 3.79413 5.91587 3.91067 6.03241C4.02721 6.14895 4.18528 6.21443 4.3501 6.21443C4.51491 6.21443 4.67298 6.14895 4.78952 6.03241C4.90607 5.91587 4.97154 5.7578 4.97154 5.59298V4.3501ZM4.3501 7.45731C4.51491 7.45731 4.67298 7.52278 4.78952 7.63933C4.90607 7.75587 4.97154 7.91394 4.97154 8.07875V9.32164C4.97154 9.48645 4.90607 9.64452 4.78952 9.76106C4.67298 9.87761 4.51491 9.94308 4.3501 9.94308C4.18528 9.94308 4.02721 9.87761 3.91067 9.76106C3.79413 9.64452 3.72865 9.48645 3.72865 9.32164V8.07875C3.72865 7.91394 3.79413 7.75587 3.91067 7.63933C4.02721 7.52278 4.18528 7.45731 4.3501 7.45731ZM4.97154 11.8074C4.97154 11.6426 4.90607 11.4845 4.78952 11.368C4.67298 11.2514 4.51491 11.186 4.3501 11.186C4.18528 11.186 4.02721 11.2514 3.91067 11.368C3.79413 11.4845 3.72865 11.6426 3.72865 11.8074V13.0503C3.72865 13.2151 3.79413 13.3732 3.91067 13.4897C4.02721 13.6063 4.18528 13.6717 4.3501 13.6717C4.51491 13.6717 4.67298 13.6063 4.78952 13.4897C4.90607 13.3732 4.97154 13.2151 4.97154 13.0503V11.8074Z" fill="black"/>
</svg>
