<svg width="22" height="22" viewBox="0 0 22 22" fill="none" xmlns="http://www.w3.org/2000/svg">
<path d="M11 1.02002C5.49002 1.02002 1.02002 5.49002 1.02002 11C1.02002 16.51 5.49002 20.98 11 20.98C16.51 20.98 20.98 16.51 20.98 11C20.98 5.49002 16.51 1.02002 11 1.02002ZM11 18.98C6.60002 18.98 3.02002 15.4 3.02002 11C3.02002 6.60002 6.60002 3.02002 11 3.02002C15.4 3.02002 18.98 6.60002 18.98 11C18.98 15.4 15.4 18.98 11 18.98ZM11.75 4.00002L7.25002 12.5H10.39V18L14.75 9.50002H11.75V4.00002Z" fill="#C7841B" stroke="#FFF1CD" stroke-width="0.8"/>
</svg>
