<svg width="18" height="22" viewBox="0 0 18 22" fill="none" xmlns="http://www.w3.org/2000/svg">
<path fill-rule="evenodd" clip-rule="evenodd" d="M17.5282 9.37395C17.1582 8.73195 16.4782 8.52095 15.8292 8.42995C15.1762 8.33895 14.3012 8.33895 13.2432 8.33895H13.1832C12.5532 8.33895 12.1402 8.33195 11.8402 8.29095C11.5692 8.25295 11.4832 8.19695 11.4462 8.16395C11.4192 8.13595 11.3712 8.07095 11.3382 7.83395C11.2992 7.55395 11.2982 7.17095 11.2982 6.55695V6.18295C11.2982 4.59495 11.2982 3.32295 11.1752 2.41695C11.0612 1.56595 10.7882 0.609954 9.84419 0.319954C8.91619 0.0359539 8.13819 0.645954 7.53419 1.27395C6.88919 1.94395 6.12419 2.97895 5.16619 4.27495L2.02919 8.51995C1.41919 9.34495 0.909191 10.034 0.607191 10.603C0.303191 11.173 0.0821909 11.851 0.419191 12.527V12.529L0.423191 12.537L0.427191 12.544L0.431191 12.552L0.436191 12.56L0.440191 12.568L0.444191 12.576L0.449191 12.584L0.453191 12.591L0.454191 12.593C0.822191 13.23 1.49819 13.453 2.15319 13.553C2.82719 13.655 3.72719 13.662 4.81819 13.662C5.45519 13.662 5.86019 13.663 6.15819 13.702C6.42219 13.735 6.50119 13.787 6.53419 13.816C6.56419 13.848 6.61719 13.921 6.65419 14.166C6.69619 14.447 6.70319 14.836 6.70319 15.443V15.818C6.70319 17.405 6.70319 18.678 6.82519 19.584C6.94019 20.434 7.21219 21.391 8.15619 21.68C9.08419 21.964 9.86219 21.355 10.4662 20.726C11.1112 20.056 11.8762 19.022 12.8342 17.725L15.9342 13.532C16.5642 12.678 17.0842 11.965 17.3892 11.372C17.6892 10.792 17.8982 10.11 17.5642 9.43995L17.5622 9.43795L17.5592 9.42995L17.5552 9.42195L17.5512 9.41495L17.5472 9.40595L17.5422 9.39795L17.5382 9.39095L17.5332 9.38295L17.5292 9.37595L17.5282 9.37395ZM8.61519 2.31395C8.04619 2.90395 7.33919 3.85895 6.33519 5.21695L3.27319 9.35995C2.61519 10.25 2.17519 10.849 1.93119 11.308C1.81119 11.531 1.76719 11.672 1.75419 11.758C1.74619 11.811 1.75119 11.834 1.75719 11.85C1.78219 11.885 1.88719 11.994 2.37919 12.07C2.91719 12.152 3.69019 12.162 4.81819 12.162H4.86419C5.44119 12.162 5.94419 12.162 6.34819 12.213C6.78119 12.269 7.21219 12.394 7.56819 12.729L7.57419 12.735L7.58019 12.74C7.93019 13.084 8.07219 13.51 8.13719 13.943C8.19919 14.357 8.20319 14.866 8.20319 15.443V15.753C8.20319 17.42 8.20419 18.589 8.31119 19.383C8.36519 19.779 8.43619 20.011 8.50519 20.14C8.55619 20.237 8.58619 20.244 8.59519 20.246H8.59719C8.60719 20.25 8.64519 20.263 8.75819 20.206C8.90019 20.134 9.10319 19.98 9.38619 19.686C9.95419 19.096 10.6622 18.141 11.6662 16.783L14.7272 12.64C15.3812 11.755 15.8172 11.148 16.0572 10.684C16.2612 10.287 16.2382 10.153 16.2252 10.117C16.2022 10.084 16.1022 9.98295 15.6222 9.91495C15.0852 9.83995 14.3162 9.83895 13.1822 9.83895C12.5802 9.83895 12.0572 9.83495 11.6342 9.77595C11.1972 9.71595 10.7652 9.58395 10.4122 9.25195L10.4062 9.24595L10.4012 9.24095C10.0482 8.89395 9.91119 8.46895 9.85219 8.03895C9.79719 7.64495 9.79819 7.15595 9.79819 6.60495V6.24695C9.79819 4.57995 9.79619 3.41095 9.68819 2.61695C9.63619 2.22195 9.56419 1.98995 9.49519 1.85995C9.44419 1.76295 9.41519 1.75695 9.40619 1.75495H9.40419L9.40319 1.75395C9.39319 1.74995 9.35619 1.73795 9.24219 1.79395C9.10019 1.86595 8.89819 2.01995 8.61519 2.31395Z" fill="#737373"/>
</svg>
