<svg width="17" height="17" viewBox="0 0 17 17" fill="none" xmlns="http://www.w3.org/2000/svg">
<path d="M2.10004 16.903C3.20004 16.903 4.10004 16.003 4.10004 14.903V7.90295C4.10004 6.80295 3.20004 5.90295 2.10004 5.90295C1.00004 5.90295 0.100037 6.80295 0.100037 7.90295V14.903C0.100037 16.003 1.00004 16.903 2.10004 16.903ZM12.1 11.903V14.903C12.1 16.003 13 16.903 14.1 16.903C15.2 16.903 16.1 16.003 16.1 14.903V11.903C16.1 10.803 15.2 9.90295 14.1 9.90295C13 9.90295 12.1 10.803 12.1 11.903ZM8.10004 16.903C9.20004 16.903 10.1 16.003 10.1 14.903V2.90295C10.1 1.80295 9.20004 0.902954 8.10004 0.902954C7.00004 0.902954 6.10004 1.80295 6.10004 2.90295V14.903C6.10004 16.003 7.00004 16.903 8.10004 16.903Z" fill="white"/>
</svg>
