<svg width="17" height="16" viewBox="0 0 17 16" fill="none" xmlns="http://www.w3.org/2000/svg">
<path d="M3.55004 14C3.55004 14.7962 2.89628 15.45 2.10004 15.45C1.30379 15.45 0.650037 14.7962 0.650037 14V7C0.650037 6.20376 1.30379 5.55 2.10004 5.55C2.89628 5.55 3.55004 6.20376 3.55004 7V14ZM12.65 14V11C12.65 10.2038 13.3038 9.55 14.1 9.55C14.8963 9.55 15.55 10.2038 15.55 11V14C15.55 14.7962 14.8963 15.45 14.1 15.45C13.3038 15.45 12.65 14.7962 12.65 14ZM9.55004 14C9.55004 14.7962 8.89628 15.45 8.10004 15.45C7.30379 15.45 6.65004 14.7962 6.65004 14V2C6.65004 1.20376 7.30379 0.55 8.10004 0.55C8.89628 0.55 9.55004 1.20376 9.55004 2V14Z" stroke="#EEEEEE" stroke-width="1.1"/>
</svg>
