<svg width="14" height="16" viewBox="0 0 14 16" fill="none" xmlns="http://www.w3.org/2000/svg">
<path d="M9.25 0.25H4.75V1.75H9.25V0.25ZM6.25 10H7.75V5.5H6.25V10ZM12.2725 5.0425L13.3375 3.9775C13.015 3.595 12.6625 3.235 12.28 2.92L11.215 3.985C10.0205 3.02374 8.53325 2.49977 7 2.5C3.2725 2.5 0.25 5.5225 0.25 9.25C0.25 12.9775 3.265 16 7 16C8.27073 16.0007 9.51581 15.6424 10.5918 14.9665C11.6679 14.2905 12.5311 13.3244 13.0821 12.1793C13.6331 11.0342 13.8494 9.75682 13.7062 8.49419C13.5629 7.23156 13.066 6.03506 12.2725 5.0425ZM7 14.5C4.0975 14.5 1.75 12.1525 1.75 9.25C1.75 6.3475 4.0975 4 7 4C9.9025 4 12.25 6.3475 12.25 9.25C12.25 12.1525 9.9025 14.5 7 14.5Z" fill="black"/>
</svg>
