<svg width="48" height="45" viewBox="0 0 48 45" fill="none" xmlns="http://www.w3.org/2000/svg">
<path fill-rule="evenodd" clip-rule="evenodd" d="M26.2434 12.1418C26.2465 11.8049 26.1385 11.4763 25.9362 11.2069C25.7338 10.9375 25.4483 10.7423 25.1238 10.6515C24.7993 10.5607 24.4539 10.5793 24.1411 10.7045C23.8283 10.8297 23.5655 11.0545 23.3932 11.3442L12.5024 29.6419C12.3644 29.8737 12.29 30.1377 12.2867 30.4074C12.2834 30.677 12.3514 30.9428 12.4836 31.1778C12.6159 31.4129 12.8079 31.6088 13.0401 31.7459C13.2723 31.8831 13.5366 31.9565 13.8063 31.9588L19.9371 32.0128L19.8426 42.7416C19.8394 43.0785 19.9474 43.4071 20.1498 43.6765C20.3522 43.9459 20.6377 44.1411 20.9622 44.2319C21.2866 44.3227 21.632 44.3041 21.9448 44.1789C22.2576 44.0537 22.5205 43.8289 22.6927 43.5392L33.5836 25.2415C33.7215 25.0098 33.7959 24.7457 33.7992 24.476C33.8025 24.2064 33.7346 23.9406 33.6023 23.7056C33.47 23.4706 33.2781 23.2746 33.0458 23.1375C32.8136 23.0004 32.5493 22.9269 32.2796 22.9246L26.1489 22.8706L26.2434 12.1418Z" fill="#11A783"/>
<path fill-rule="evenodd" clip-rule="evenodd" d="M43.2896 3.89979C43.3213 3.72287 43.2939 3.54042 43.2116 3.38065C43.1292 3.22088 42.9965 3.0927 42.834 3.01594C42.6714 2.93918 42.4881 2.91811 42.3124 2.956C42.1367 2.99389 41.9784 3.08862 41.8619 3.22555L34.4987 11.8752C34.4055 11.9847 34.3428 12.1169 34.3169 12.2585C34.2911 12.4 34.303 12.5458 34.3516 12.6813C34.4002 12.8167 34.4836 12.9369 34.5935 13.0298C34.7034 13.1226 34.8358 13.1849 34.9774 13.2102L38.1969 13.7866L37.1882 19.4206C37.1564 19.5975 37.1838 19.78 37.2662 19.9397C37.3485 20.0995 37.4813 20.2277 37.6438 20.3045C37.8063 20.3812 37.9896 20.4023 38.1653 20.3644C38.341 20.3265 38.4994 20.2318 38.6158 20.0948L45.979 11.4452C46.0723 11.3357 46.135 11.2035 46.1608 11.0619C46.1867 10.9204 46.1747 10.7746 46.1261 10.6391C46.0776 10.5037 45.9941 10.3835 45.8843 10.2906C45.7744 10.1977 45.6419 10.1355 45.5003 10.1102L42.2809 9.53381L43.2896 3.89979Z" fill="#11A783"/>
<path fill-rule="evenodd" clip-rule="evenodd" d="M10.27 18.5516C10.3018 18.7285 10.2744 18.911 10.192 19.0708C10.1097 19.2305 9.97696 19.3587 9.81443 19.4355C9.65189 19.5122 9.46859 19.5333 9.29289 19.4954C9.11718 19.4575 8.95885 19.3628 8.8424 19.2259L1.47922 10.5762C1.38594 10.4667 1.32322 10.3345 1.29739 10.193C1.27155 10.0514 1.28352 9.90558 1.33208 9.77015C1.38063 9.63473 1.46407 9.51451 1.57395 9.42164C1.68383 9.32877 1.81627 9.26654 1.95789 9.24122L5.17733 8.66484L4.16865 3.03082C4.13689 2.8539 4.1643 2.67145 4.24666 2.51168C4.32902 2.35191 4.46173 2.22373 4.62426 2.14697C4.78679 2.0702 4.97009 2.04914 5.1458 2.08703C5.32151 2.12492 5.47983 2.21965 5.59629 2.35657L12.9595 11.0062C13.0527 11.1157 13.1155 11.248 13.1413 11.3895C13.1671 11.531 13.1552 11.6769 13.1066 11.8123C13.058 11.9477 12.9746 12.0679 12.8647 12.1608C12.7549 12.2537 12.6224 12.3159 12.4808 12.3412L9.26135 12.9176L10.27 18.5516Z" fill="#11A783"/>
</svg>
