<svg width="98" height="60" viewBox="0 0 98 60" fill="none" xmlns="http://www.w3.org/2000/svg">
<circle cx="30" cy="30" r="30" fill="#897AE5"/>
<path d="M18.4941 23.3064C18.4941 22.5363 19.2501 22.2283 19.2501 22.2283L30.3821 17L41.62 22.2283C41.62 22.2283 42.3944 22.4007 42.3944 23.3121V24.2178H18.4941V23.3064Z" fill="white"/>
<path d="M41.6477 26.1042C41.6477 25.279 40.9341 24.6107 40.0552 24.6107H20.7347C19.8543 24.6107 19.2411 25.279 19.2411 26.1042C19.2411 26.6652 19.5293 27.1485 19.9886 27.4042V28.3453H22.9758V27.5978H25.9629V28.3453H28.9501V27.5978H31.9373V28.3453H34.9245V27.5978H37.9116V28.3453H40.9002V27.3661C41.3482 27.1004 41.6477 26.6355 41.6477 26.1042ZM43.8874 41.8795C43.8874 42.1766 43.7693 42.4617 43.5592 42.6718C43.349 42.8819 43.064 43 42.7668 43H18.1205C17.8234 43 17.5383 42.8819 17.3282 42.6718C17.1181 42.4617 17 42.1766 17 41.8795C17 41.5823 17.1181 41.2973 17.3282 41.0871C17.5383 40.877 17.8234 40.7589 18.1205 40.7589H42.7683C43.3858 40.7589 43.8874 41.2605 43.8874 41.8795Z" fill="white"/>
<path d="M42.3932 25.2055C42.3932 25.4038 42.3144 25.5939 42.1742 25.7341C42.0341 25.8743 41.8439 25.953 41.6457 25.953H19.2391C19.0488 25.9413 18.8701 25.8575 18.7395 25.7186C18.6089 25.5797 18.5361 25.3962 18.5361 25.2055C18.5361 25.0149 18.6089 24.8314 18.7395 24.6925C18.8701 24.5536 19.0488 24.4697 19.2391 24.458L41.6457 24.4623C41.7436 24.4619 41.8406 24.4808 41.9312 24.518C42.0218 24.5552 42.1042 24.6099 42.1736 24.6789C42.243 24.7479 42.2981 24.83 42.3358 24.9203C42.3735 25.0107 42.393 25.1076 42.3932 25.2055ZM22.2276 26.0731H38.6599V27.749H22.2276V26.0731Z" fill="white"/>
<path d="M22.9739 37.3987C22.9739 38.2239 22.5274 38.8923 21.9777 38.8923H20.9815C20.4319 38.8923 19.9854 38.2239 19.9854 37.3987V26.0746C19.9854 25.2494 20.4319 24.581 20.9815 24.581H21.9777C22.5274 24.581 22.9739 25.2494 22.9739 26.0746V37.3987ZM40.8998 37.3987C40.8998 38.2239 40.4547 38.8923 39.9036 38.8923H38.9074C38.3577 38.8923 37.9112 38.2239 37.9112 37.3987V26.0746C37.9112 25.2494 38.3563 24.581 38.9074 24.581H39.9036C40.4533 24.581 40.8998 25.2494 40.8998 26.0746V37.3987ZM28.9497 37.3987C28.9497 38.2239 28.5032 38.8923 27.9535 38.8923H26.9573C26.4076 38.8923 25.9611 38.2239 25.9611 37.3987V26.0746C25.9611 25.2494 26.4076 24.581 26.9573 24.581H27.9535C28.5032 24.581 28.9497 25.2494 28.9497 26.0746V37.3987ZM34.924 37.3987C34.924 38.2239 34.4775 38.8923 33.9278 38.8923H32.9331C32.3834 38.8923 31.9369 38.2239 31.9369 37.3987V26.0746C31.9369 25.2494 32.3834 24.581 32.9331 24.581H33.9278C34.4775 24.581 34.924 25.2494 34.924 26.0746V37.3987Z" fill="white"/>
<path d="M41.6478 38.1448C41.6478 38.97 40.9795 39.6384 40.1543 39.6384H20.7348C20.3387 39.6384 19.9588 39.481 19.6787 39.2009C19.3986 38.9208 19.2412 38.5409 19.2412 38.1448C19.2412 37.7487 19.3986 37.3688 19.6787 37.0887C19.9588 36.8086 20.3387 36.6512 20.7348 36.6512H40.1543C40.9781 36.6512 41.6478 37.3196 41.6478 38.1448Z" fill="white"/>
<path d="M43.1403 39.6384C43.1403 40.4636 42.472 41.1319 41.6467 41.1319H19.2387C18.8426 41.1319 18.4627 40.9746 18.1826 40.6945C17.9025 40.4144 17.7451 40.0345 17.7451 39.6384C17.7451 39.2422 17.9025 38.8623 18.1826 38.5822C18.4627 38.3021 18.8426 38.1448 19.2387 38.1448H41.6453C42.4705 38.1448 43.1403 38.8131 43.1403 39.6384Z" fill="white"/>
<path d="M43.8874 40.7589C43.8874 41.0561 43.7693 41.3411 43.5592 41.5513C43.349 41.7614 43.064 41.8795 42.7668 41.8795H18.1205C17.9734 41.8795 17.8277 41.8505 17.6917 41.7942C17.5558 41.7378 17.4323 41.6553 17.3282 41.5513C17.2241 41.4472 17.1416 41.3237 17.0853 41.1877C17.029 41.0518 17 40.9061 17 40.7589C17 40.6118 17.029 40.466 17.0853 40.3301C17.1416 40.1941 17.2241 40.0706 17.3282 39.9666C17.4323 39.8625 17.5558 39.78 17.6917 39.7237C17.8277 39.6674 17.9734 39.6384 18.1205 39.6384H42.7683C43.3858 39.6384 43.8874 40.14 43.8874 40.7589Z" fill="white"/>
<path d="M41.6478 25.3271C41.6478 24.5018 40.9343 23.8335 40.0553 23.8335H20.7348C19.8545 23.8335 19.2412 24.5018 19.2412 25.3271C19.2412 25.888 19.5295 26.3713 19.9887 26.6271V27.5681H22.9759V26.8206H25.9631V27.5681H28.9502V26.8206H31.9374V27.5681H34.9246V26.8206H37.9118V27.5681H40.9003V26.5889C41.3483 26.3232 41.6478 25.8584 41.6478 25.3271Z" fill="white"/>
<path d="M18.4941 24.1641C18.4941 23.394 19.2501 23.086 19.2501 23.086L30.3821 17.8577L41.62 23.086C41.62 23.086 42.3944 23.2584 42.3944 24.1698V24.581H18.4941V24.1641Z" fill="white"/>
<path d="M30.4431 19.7554C30.4431 19.7554 22.7349 23.3884 21.9662 23.7162C21.1961 24.0426 21.4533 24.5796 21.9676 24.5796H38.8818C39.6759 24.5796 39.488 23.9734 38.8577 23.6455C38.2275 23.3191 30.4431 19.7554 30.4431 19.7554Z" fill="white"/>
<path d="M42.3932 24.5796C42.3932 24.7778 42.3144 24.9679 42.1742 25.1081C42.0341 25.2483 41.8439 25.3271 41.6457 25.3271H19.2391C19.0488 25.3154 18.8701 25.2315 18.7395 25.0926C18.6089 24.9537 18.5361 24.7702 18.5361 24.5796C18.5361 24.3889 18.6089 24.2054 18.7395 24.0665C18.8701 23.9276 19.0488 23.8438 19.2391 23.8321L41.6457 23.8363C41.7436 23.8359 41.8406 23.8549 41.9312 23.892C42.0218 23.9292 42.1042 23.9839 42.1736 24.0529C42.243 24.1219 42.2981 24.204 42.3358 24.2944C42.3735 24.3847 42.393 24.4817 42.3932 24.5796Z" fill="white"/>
<circle cx="68" cy="30" r="30" fill="#28091F"/>
<circle cx="68" cy="30" r="22" fill="#F2F2F2"/>
<g clip-path="url(#clip0_79_308)">
<path d="M69.0603 21.283C68.779 21.0021 68.3978 20.8443 68.0003 20.8443C67.6028 20.8443 67.2215 21.0021 66.9403 21.283L61.2813 26.939C60.9999 27.2204 60.8418 27.6021 60.8418 28C60.8418 28.398 60.9999 28.7796 61.2813 29.061C61.5627 29.3424 61.9443 29.5005 62.3423 29.5005C62.7402 29.5005 63.1219 29.3424 63.4033 29.061L66.5003 25.965V37.5C66.5003 37.8978 66.6583 38.2794 66.9396 38.5607C67.2209 38.842 67.6025 39 68.0003 39C68.3981 39 68.7796 38.842 69.0609 38.5607C69.3422 38.2794 69.5003 37.8978 69.5003 37.5V25.965L72.5963 29.061C72.7356 29.2003 72.901 29.3109 73.0831 29.3863C73.2651 29.4617 73.4602 29.5005 73.6573 29.5005C73.8543 29.5005 74.0494 29.4617 74.2315 29.3863C74.4135 29.3109 74.5789 29.2003 74.7183 29.061C74.8576 28.9217 74.9681 28.7563 75.0435 28.5742C75.1189 28.3922 75.1578 28.1971 75.1578 28C75.1578 27.803 75.1189 27.6078 75.0435 27.4258C74.9681 27.2438 74.8576 27.0783 74.7183 26.939L69.0603 21.283Z" fill="#28091F"/>
</g>
<defs>
<clipPath id="clip0_79_308">
<rect width="24" height="24" fill="white" transform="translate(56 18)"/>
</clipPath>
</defs>
</svg>
