<svg width="24" height="24" viewBox="0 0 24 24" fill="none" xmlns="http://www.w3.org/2000/svg">
<path d="M2.66204 9.40219L3.24142 9.75375L3.58595 9.11719C4.36267 7.81641 6.7397 4.78125 12 4.78125C17.3906 4.78125 19.6875 8.0775 20.4422 9.16219L20.8247 9.7575L22.0256 9L21.6253 8.37375C21.2091 7.77141 20.3353 6.52078 18.7763 5.41594C16.882 4.06969 14.6016 3.38672 12 3.38672C5.99673 3.38672 3.24892 6.9075 2.34376 8.41406L1.99829 9L2.53126 9.32156C2.5555 9.34051 2.58103 9.35774 2.60767 9.37313C2.62527 9.38376 2.64342 9.39346 2.66204 9.40219Z" fill="black"/>
<path d="M17.7759 8.07739C16.11 6.7213 14.1141 6.00317 12 6.00317C7.42876 6.00317 4.39173 9.09692 3.40642 12.1658C2.50407 14.9999 3.60095 19.1066 3.64689 19.2824L3.8522 19.9297L5.25517 19.6283L5.03298 18.9252C5.02314 18.89 3.99704 15.0379 4.77939 12.5872C5.20126 11.271 6.07923 9.99036 7.18642 9.08145C8.52236 7.98692 10.1883 7.40614 12 7.40614C16.2459 7.40614 18.653 10.716 19.3336 12.4738C19.8619 13.8299 19.74 15.3716 19.0392 16.3175C18.78 16.664 18.323 17.0708 17.6274 17.0357C16.0425 16.955 15.7683 16.1718 15.3872 14.6802C15.2044 13.9621 15.0169 13.2186 14.5495 12.6177C13.9805 11.8794 13.1527 11.5227 12.0052 11.5227C10.7709 11.5227 9.83626 11.9296 9.22173 12.7283C7.88111 14.4758 8.75298 17.4594 8.79001 17.585L8.80032 17.6249C8.86642 17.8058 10.4916 22.1554 14.8439 23.2349L15.5363 23.3854L15.9155 22.0396L15.1997 21.8788C11.7206 21.0149 10.268 17.4543 10.1564 17.173C10.0307 16.7166 9.95059 16.2488 9.91736 15.7766C9.86673 15.0988 9.90236 14.1646 10.3594 13.5669C10.6945 13.13 11.2331 12.9191 12 12.9191C13.3964 12.9191 13.6303 13.6021 13.9959 15.0186C14.3513 16.3996 14.8397 18.2929 17.551 18.4288C18.592 18.479 19.5319 18.0168 20.1919 17.1327C21.1824 15.8071 21.3703 13.7779 20.6695 11.9699C20.122 10.5468 19.066 9.13208 17.7759 8.07739Z" fill="black"/>
<path d="M7.22719 16.088C7.06453 14.7623 7.29328 12.7598 8.47172 11.4577C9.28922 10.5534 10.4775 10.0983 11.9963 10.0983C13.7536 10.0983 15.0839 10.882 15.9577 12.4237C16.3877 13.1974 16.6718 14.0435 16.7958 14.9198L16.8628 15.6084L18.2691 15.5053C18.2704 15.2608 18.2547 15.0164 18.2222 14.7741C18.217 14.7141 18.0548 13.2525 17.2378 11.7858C16.11 9.765 14.302 8.69531 12 8.69531C10.0547 8.69531 8.50547 9.31312 7.40344 10.5286C5.91047 12.1758 5.60578 14.5716 5.81391 16.2638V16.2792C6.1875 18.8353 7.17187 20.8795 8.91328 22.7077L9.45703 23.2336L10.4391 22.2122L9.95438 21.7533C8.42062 20.1464 7.55203 18.3483 7.22719 16.088ZM6.20953 3.40594C6.72891 3.09094 8.56594 2.15109 12 2.15109C16.1034 2.15109 17.9269 3.49734 17.947 3.50719L18.5986 3.9225L19.3594 2.74078L18.7397 2.33953C18.7153 2.32172 18.69 2.30391 18.6647 2.28703C18.0703 1.90031 15.9628 0.75 12 0.75C7.88859 0.75 5.77734 1.99125 5.27766 2.33016L4.64062 2.74312L5.4 3.92484L6.20953 3.40594Z" fill="black"/>
<path d="M18.3089 19.4629C16.7447 19.6387 15.4753 19.3378 14.5257 18.5793C12.9207 17.2936 12.7125 15.0586 12.7074 15.0168L12.6497 14.3193L11.2186 14.4239L11.28 15.127C11.2903 15.2423 11.5238 17.9746 13.606 19.6523C14.6424 20.4909 15.9375 20.9128 17.461 20.9128C17.7987 20.9121 18.1362 20.8919 18.4716 20.8523L19.2493 20.7543L18.9633 19.3617L18.3089 19.4629Z" fill="black"/>
</svg>
