<svg width="24" height="20" viewBox="0 0 24 20" fill="none" xmlns="http://www.w3.org/2000/svg">
<path d="M15 9H16.5V11.82L18.94 13.23L18.19 14.53L15 12.69V9ZM18.13 5.33C17.23 2.81 14.83 1 12 1C9.3 1 7 2.65 6 5C3.24 5 1 7.24 1 10C1 12.76 3.24 15 6 15H9.68C10.81 17.36 13.21 19 16 19C19.87 19 23 15.87 23 12C23 8.88 20.96 6.24 18.13 5.33ZM6 13C4.34 13 3 11.66 3 10C3 8.34 4.34 7 6 7C6.37 7 6.73 7.07 7.06 7.19C7.25301 6.01931 7.85571 4.9553 8.76056 4.18783C9.6654 3.42036 10.8135 2.99937 12 3C13.63 3 15.07 3.79 16 5C12.12 5 9 8.14 9 12C9 12.34 9.03 12.67 9.08 13H6ZM16 17C13.24 17 11 14.76 11 12C11 9.24 13.24 7 16 7C18.76 7 21 9.24 21 12C21 14.76 18.76 17 16 17Z" fill="#737373" stroke="#F1F1F1" stroke-width="0.5"/>
</svg>
