<svg width="40" height="40" viewBox="0 0 40 40" fill="none" xmlns="http://www.w3.org/2000/svg">
<path d="M1.15577 20.0704C1.15483 23.4312 2.03961 26.7127 3.72199 29.6051L0.994873 39.4876L11.1848 36.8358C14.0032 38.3586 17.161 39.1565 20.37 39.1567H20.3784C30.9718 39.1567 39.5951 30.6012 39.5996 20.0854C39.6016 14.9898 37.604 10.1981 33.9746 6.59318C30.3459 2.98853 25.5197 1.00233 20.3776 1C9.78296 1 1.1603 9.55504 1.15593 20.0704" fill="url(#paint0_linear_1122_868)"/>
<path d="M0.167145 19.7544C0.166052 23.2361 1.08254 26.635 2.82491 29.631L0 39.8678L10.5553 37.1209C13.4636 38.6947 16.7381 39.5245 20.0701 39.5257H20.0787C31.0521 39.5257 39.9852 30.6625 39.9898 19.7702C39.9917 14.4915 37.9222 9.5276 34.1632 5.79349C30.4037 2.05984 25.405 0.00217054 20.0787 0C9.10331 0 0.171519 8.86202 0.167145 19.7544ZM6.45305 29.115L6.05893 28.4941C4.40216 25.8795 3.5277 22.8581 3.52895 19.7557C3.53254 10.7022 10.9563 3.33643 20.0849 3.33643C24.5057 3.33829 28.6602 5.04868 31.7851 8.15194C34.9097 11.2555 36.6291 15.3811 36.628 19.769C36.624 28.8225 29.2001 36.1891 20.0787 36.1891H20.0721C17.1021 36.1876 14.1892 35.396 11.6489 33.9L11.0444 33.5442L4.78066 35.1741L6.45305 29.1149V29.115Z" fill="url(#paint1_linear_1122_868)"/>
<path d="M15.1021 11.4958C14.7293 10.6736 14.3371 10.657 13.9827 10.6426C13.6924 10.6302 13.3606 10.6311 13.0292 10.6311C12.6974 10.6311 12.1583 10.755 11.7026 11.2488C11.2465 11.7431 9.96118 12.9375 9.96118 15.3668C9.96118 17.7962 11.744 20.144 11.9925 20.4738C12.2414 20.8029 15.4343 25.9477 20.4912 27.9269C24.6938 29.5717 25.5491 29.2446 26.4612 29.1621C27.3735 29.08 29.4048 27.968 29.8193 26.815C30.234 25.6621 30.234 24.6739 30.1097 24.4674C29.9853 24.2617 29.6535 24.1381 29.156 23.8913C28.6583 23.6443 26.2124 22.4497 25.7564 22.2849C25.3003 22.1203 24.9686 22.0381 24.6368 22.5325C24.305 23.0262 23.3523 24.1381 23.0619 24.4674C22.7718 24.7975 22.4814 24.8386 21.9841 24.5916C21.4862 24.3438 19.884 23.8231 17.9831 22.141C16.5041 20.8322 15.5056 19.2159 15.2153 18.7215C14.9251 18.2279 15.1842 17.9603 15.4337 17.7142C15.6572 17.493 15.9314 17.1376 16.1804 16.8494C16.4284 16.561 16.5112 16.3553 16.6771 16.026C16.8432 15.6964 16.7601 15.408 16.6359 15.161C16.5112 14.9141 15.5445 12.4721 15.1021 11.4958Z" fill="white"/>
<defs>
<linearGradient id="paint0_linear_1122_868" x1="1931.23" y1="3849.76" x2="1931.23" y2="1" gradientUnits="userSpaceOnUse">
<stop stop-color="#1FAF38"/>
<stop offset="1" stop-color="#60D669"/>
</linearGradient>
<linearGradient id="paint1_linear_1122_868" x1="1999.49" y1="3986.78" x2="1999.49" y2="0" gradientUnits="userSpaceOnUse">
<stop stop-color="#F9F9F9"/>
<stop offset="1" stop-color="white"/>
</linearGradient>
</defs>
</svg>
